<svg width="329" height="75" viewBox="0 0 329 75" fill="none" xmlns="http://www.w3.org/2000/svg">
<g clip-path="url(#clip0_76_2084)">
<path d="M39.6897 15.8753C43.2552 19.2636 45.6069 23.9083 46.0621 29.124C48.9069 32.0936 50.6897 36.091 50.6897 40.5073C50.6897 49.5301 43.369 56.8778 34.3793 56.8778H11.2793L15.7173 44.086H15.831L15.4517 45.1139H29.9035C33.431 45.1139 36.2379 47.9692 36.2379 51.4717V51.624C36.2379 52.119 36.1621 52.6139 36.0483 53.0707L43.369 51.3956L43.5966 49.4159C43.5966 45.7611 42.0793 42.4489 39.6517 40.0885C42.0793 37.7281 43.5966 34.4159 43.5966 30.7611V27.1063C43.5966 19.9489 37.7931 14.124 30.6621 14.124H18.6L15.3759 22.7662H29.8276C33.3552 22.7662 36.1621 25.6215 36.1621 29.124V29.2763C36.1621 32.8169 33.3172 35.6342 29.8276 35.6342H10.0655V36.1672L2.74483 56.9159L-0.365509 65.7484H34.3414C48.1862 65.7484 59.4517 54.4413 59.4517 40.5453C59.4517 28.4768 50.9931 18.3499 39.6897 15.8753Z" fill="white"/>
<path d="M79.9345 47.7796V31.0283H86.1552C91.3897 31.0283 94.8793 34.4928 94.8793 39.404C94.8793 44.3532 91.3897 47.7796 86.1931 47.7796H79.9345ZM91.8828 39.404C91.8828 36.206 89.8724 33.6172 86.1931 33.6172H82.8931V45.1908H86.1552C89.7586 45.1908 91.8828 42.6019 91.8828 39.404Z" fill="white"/>
<path d="M97.3069 32.5511C97.3069 31.6374 98.0276 30.9141 98.9379 30.9141C99.8483 30.9141 100.569 31.6374 100.569 32.5511C100.569 33.4648 99.8483 34.1882 98.9379 34.1882C98.0276 34.1882 97.3069 33.4648 97.3069 32.5511ZM97.6103 47.7795V35.6729H100.228V47.7795H97.6103Z" fill="white"/>
<path d="M103.641 47.7793V35.6727H106.259V37.424C107.169 36.2819 108.648 35.3682 110.203 35.3682V37.9951C109.976 37.957 109.71 37.9189 109.407 37.9189C108.269 37.9189 106.79 38.6803 106.297 39.556V47.8174H103.641V47.7793Z" fill="white"/>
<path d="M111.607 41.726C111.607 38.2235 114.148 35.3682 117.752 35.3682C121.393 35.3682 123.669 38.1474 123.669 41.9545V42.6017H114.376C114.566 44.391 115.931 45.9519 118.207 45.9519C119.421 45.9519 120.786 45.457 121.659 44.5814L122.872 46.2946C121.659 47.4367 119.876 48.0839 117.979 48.0839C114.262 48.0839 111.607 45.5712 111.607 41.726ZM117.714 37.5382C115.476 37.5382 114.452 39.2514 114.338 40.7362H121.128C121.052 39.2895 120.066 37.5382 117.714 37.5382Z" fill="white"/>
<path d="M134.252 47.7796L130.572 42.7542L128.866 44.5055V47.7796H126.248V31.0283H128.866V41.4979L134.176 35.6349H137.438L132.431 41.1172L137.552 47.7415H134.252V47.7796Z" fill="white"/>
<path d="M139.979 44.9619V37.9568H137.969V35.6725H139.979V32.3604H142.597V35.6725H145.062V37.9568H142.597V44.3147C142.597 45.1522 143.014 45.7614 143.735 45.7614C144.228 45.7614 144.683 45.5329 144.872 45.3045L145.479 47.3223C144.986 47.7411 144.228 48.0837 143.014 48.0837C141.041 48.0837 139.979 46.9796 139.979 44.9619Z" fill="white"/>
<path d="M162.245 47.7793V39.8605C162.245 38.5661 161.676 37.6905 160.234 37.6905C159.059 37.6905 157.959 38.49 157.428 39.2895V47.7793H154.81V39.8605C154.81 38.5661 154.241 37.6905 152.838 37.6905C151.662 37.6905 150.6 38.5281 150.031 39.2895V47.7793H147.414V35.6727H150.031V37.3098C150.562 36.5864 152.117 35.3682 153.976 35.3682C155.759 35.3682 156.859 36.2819 157.276 37.5763C157.959 36.5103 159.552 35.3682 161.372 35.3682C163.572 35.3682 164.862 36.5864 164.862 39.023V47.7793H162.245Z" fill="white"/>
<path d="M175.672 47.7794V46.4469C174.762 47.5129 173.359 48.0839 171.728 48.0839C169.793 48.0839 167.555 46.7134 167.555 44.0865C167.555 41.2692 169.755 40.1271 171.728 40.1271C173.397 40.1271 174.762 40.6601 175.672 41.688V39.8987C175.672 38.49 174.497 37.6525 172.828 37.6525C171.462 37.6525 170.286 38.1474 169.262 39.2134L168.162 37.386C169.566 36.0154 171.31 35.4443 173.245 35.4443C175.938 35.4443 178.29 36.5865 178.29 39.8225V47.8936H175.672V47.7794ZM175.672 45.0382V43.1728C175.066 42.3352 173.928 41.9164 172.79 41.9164C171.31 41.9164 170.172 42.7921 170.172 44.0865C170.172 45.419 171.31 46.2565 172.79 46.2565C173.928 46.2946 175.066 45.8377 175.672 45.0382Z" fill="white"/>
<path d="M181.703 47.7793V35.6727H184.321V37.424C185.231 36.2819 186.71 35.3682 188.266 35.3682V37.9951C188.038 37.957 187.772 37.9189 187.469 37.9189C186.331 37.9189 184.852 38.6803 184.359 39.556V47.8174H181.703V47.7793Z" fill="white"/>
<path d="M198.393 47.7796L194.714 42.7542L193.007 44.5055V47.7796H190.39V31.0283H193.007V41.4979L198.317 35.6349H201.579L196.572 41.1172L201.693 47.7415H198.393V47.7796Z" fill="white"/>
<path d="M202.831 41.726C202.831 38.2235 205.372 35.3682 208.976 35.3682C212.617 35.3682 214.893 38.1474 214.893 41.9545V42.6017H205.6C205.79 44.391 207.155 45.9519 209.431 45.9519C210.645 45.9519 212.01 45.457 212.883 44.5814L214.097 46.2946C212.883 47.4367 211.1 48.0839 209.203 48.0839C205.524 48.0839 202.831 45.5712 202.831 41.726ZM208.938 37.5382C206.7 37.5382 205.676 39.2514 205.562 40.7362H212.352C212.276 39.2895 211.328 37.5382 208.938 37.5382Z" fill="white"/>
<path d="M218.041 44.9619V37.9568H216.031V35.6725H218.041V32.3604H220.659V35.6725H223.124V37.9568H220.659V44.3147C220.659 45.1522 221.076 45.7614 221.797 45.7614C222.29 45.7614 222.745 45.5329 222.934 45.3045L223.541 47.3223C223.048 47.7411 222.29 48.0837 221.076 48.0837C219.103 48.0837 218.041 46.9796 218.041 44.9619Z" fill="white"/>
<path d="M225.172 32.5511C225.172 31.6374 225.893 30.9141 226.803 30.9141C227.714 30.9141 228.434 31.6374 228.434 32.5511C228.434 33.4648 227.714 34.1882 226.803 34.1882C225.893 34.1882 225.172 33.4648 225.172 32.5511ZM225.476 47.7795V35.6729H228.093V47.7795H225.476Z" fill="white"/>
<path d="M239.662 47.7793V40.2032C239.662 38.2996 238.676 37.6905 237.197 37.6905C235.869 37.6905 234.731 38.49 234.086 39.2895V47.7793H231.469V35.6727H234.086V37.3098C234.883 36.358 236.476 35.3682 238.372 35.3682C240.99 35.3682 242.279 36.7768 242.279 39.2514V47.7793H239.662Z" fill="white"/>
<path d="M245.541 50.9011L246.755 48.9976C247.741 50.1397 248.993 50.5585 250.624 50.5585C252.331 50.5585 254.19 49.759 254.19 47.1702V45.7996C253.279 47.0179 251.876 47.8174 250.321 47.8174C247.248 47.8174 244.972 45.5712 244.972 41.5737C244.972 37.6143 247.21 35.3301 250.321 35.3301C251.838 35.3301 253.203 36.0154 254.19 37.3098V35.6346H256.807V47.1321C256.807 51.5103 253.545 52.6905 250.586 52.6905C248.576 52.6905 247.059 52.2717 245.541 50.9011ZM254.19 43.858V39.3275C253.583 38.4519 252.331 37.7286 251.079 37.7286C248.993 37.7286 247.666 39.2895 247.666 41.6118C247.666 43.9341 248.993 45.4951 251.079 45.4951C252.331 45.457 253.583 44.7336 254.19 43.858Z" fill="white"/>
<path d="M266.745 47.7796V31.0283H274.938C278.01 31.0283 279.679 32.9319 279.679 35.2923C279.679 37.3862 278.314 38.7948 276.797 39.1375C278.579 39.404 280.021 41.1933 280.021 43.2111C280.021 45.838 278.314 47.7415 275.166 47.7415H266.745V47.7796ZM276.721 35.7872C276.721 34.5689 275.886 33.6172 274.407 33.6172H269.704V37.9192H274.407C275.848 37.9573 276.721 37.0816 276.721 35.7872ZM277.024 42.8684C277.024 41.6121 276.152 40.5461 274.483 40.5461H269.666V45.2288H274.483C276.076 45.1908 277.024 44.3151 277.024 42.8684Z" fill="white"/>
<path d="M282.183 41.7263C282.183 38.2238 284.535 35.3684 288.403 35.3684C292.272 35.3684 294.624 38.2238 294.624 41.7263C294.624 45.1908 292.272 48.0842 288.403 48.0842C284.535 48.0842 282.183 45.1908 282.183 41.7263ZM285.748 33.9979C284.952 33.9979 284.269 33.3507 284.269 32.5512C284.269 31.7136 284.952 31.0664 285.748 31.0664C286.583 31.0664 287.228 31.7136 287.228 32.5512C287.228 33.3126 286.583 33.9979 285.748 33.9979ZM291.855 41.7263C291.855 39.5943 290.641 37.7288 288.366 37.7288C286.128 37.7288 284.876 39.5943 284.876 41.7263C284.876 43.8964 286.128 45.7618 288.366 45.7618C290.641 45.7618 291.855 43.8583 291.855 41.7263ZM290.983 33.9979C290.186 33.9979 289.541 33.3507 289.541 32.5512C289.541 31.7136 290.186 31.0664 290.983 31.0664C291.817 31.0664 292.462 31.7136 292.462 32.5512C292.462 33.3126 291.817 33.9979 290.983 33.9979Z" fill="white"/>
<path d="M297.279 47.7793V35.6727H299.897V37.424C300.807 36.2819 302.286 35.3682 303.841 35.3682V37.9951C303.614 37.957 303.348 37.9189 303.045 37.9189C301.907 37.9189 300.428 38.6803 299.935 39.556V47.8174H297.279V47.7793Z" fill="white"/>
<path d="M304.903 46.1804L306.117 44.3149C306.952 45.1905 308.659 45.99 310.176 45.99C311.769 45.99 312.566 45.3428 312.566 44.391C312.566 41.9925 305.245 43.7057 305.245 39.0611C305.245 37.0814 306.952 35.4062 309.986 35.4062C312.034 35.4062 313.59 36.1296 314.652 37.0814L313.552 38.9469C312.831 38.1474 311.503 37.5002 309.986 37.5002C308.621 37.5002 307.748 38.1474 307.748 39.023C307.748 41.155 315.069 39.556 315.069 44.353C315.069 46.523 313.286 48.1601 310.024 48.1601C308.014 48.0839 306.155 47.3986 304.903 46.1804Z" fill="white"/>
<path d="M317.004 41.726C317.004 38.2235 319.545 35.3682 323.148 35.3682C326.79 35.3682 329.066 38.1474 329.066 41.9545V42.6017H319.773C319.962 44.391 321.328 45.9519 323.604 45.9519C324.817 45.9519 326.183 45.457 327.055 44.5814L328.269 46.2946C327.055 47.4367 325.273 48.0839 323.376 48.0839C319.697 48.0839 317.004 45.5712 317.004 41.726ZM323.11 37.5382C320.873 37.5382 319.848 39.2514 319.735 40.7362H326.524C326.486 39.2895 325.5 37.5382 323.11 37.5382Z" fill="white"/>
</g>
<defs>
<clipPath id="clip0_76_2084">
<rect width="329" height="75" fill="white"/>
</clipPath>
</defs>
</svg>
