<svg width="340" height="75" viewBox="0 0 340 75" fill="none" xmlns="http://www.w3.org/2000/svg">
<g clip-path="url(#clip0_72_5)">
<path d="M39.6897 15.8757C43.2552 19.264 45.6069 23.9087 46.0621 29.1244C48.9069 32.0939 50.6897 36.0914 50.6897 40.5076C50.6897 49.5305 43.369 56.8782 34.3793 56.8782H11.2793L15.7173 44.0863H15.831L15.4517 45.1142H29.9035C33.431 45.1142 36.2379 47.9696 36.2379 51.4721V51.6244C36.2379 52.1193 36.1621 52.6142 36.0483 53.0711L43.369 51.396L43.5966 49.4163C43.5966 45.7614 42.0793 42.4493 39.6517 40.0889C42.0793 37.7285 43.5966 34.4163 43.5966 30.7614V27.1066C43.5966 19.9493 37.7931 14.1244 30.6621 14.1244H18.6L15.3759 22.7665H29.8276C33.3552 22.7665 36.1621 25.6219 36.1621 29.1244V29.2767C36.1621 32.8173 33.3172 35.6345 29.8276 35.6345H10.0655V36.1675L2.74483 56.9163L-0.365509 65.7488H34.3414C48.1862 65.7488 59.4517 54.4417 59.4517 40.5457C59.4517 28.4772 50.9931 18.3503 39.6897 15.8757Z" fill="#124BD8"/>
<path d="M79.9345 47.7792V31.0279H86.1552C91.3896 31.0279 94.8793 34.4924 94.8793 39.4036C94.8793 44.3528 91.3897 47.7792 86.1931 47.7792H79.9345ZM91.8828 39.4036C91.8828 36.2056 89.8724 33.6168 86.1931 33.6168H82.8931V45.1904H86.1552C89.7586 45.1904 91.8828 42.6015 91.8828 39.4036Z" fill="#124BD8"/>
<path d="M97.3069 32.5508C97.3069 31.637 98.0276 30.9137 98.9379 30.9137C99.8483 30.9137 100.569 31.637 100.569 32.5508C100.569 33.4645 99.8483 34.1878 98.9379 34.1878C98.0276 34.1878 97.3069 33.4645 97.3069 32.5508ZM97.6103 47.7792V35.6726H100.228V47.7792H97.6103Z" fill="#124BD8"/>
<path d="M103.641 47.7792V35.6726H106.259V37.4238C107.169 36.2817 108.648 35.368 110.203 35.368V37.9949C109.976 37.9568 109.71 37.9188 109.407 37.9188C108.269 37.9188 106.79 38.6802 106.297 39.5558V47.8172H103.641V47.7792Z" fill="#124BD8"/>
<path d="M111.607 41.7259C111.607 38.2233 114.148 35.368 117.752 35.368C121.393 35.368 123.669 38.1472 123.669 41.9543V42.6015H114.376C114.566 44.3909 115.931 45.9518 118.207 45.9518C119.421 45.9518 120.786 45.4568 121.659 44.5812L122.872 46.2944C121.659 47.4365 119.876 48.0838 117.979 48.0838C114.262 48.0838 111.607 45.5711 111.607 41.7259ZM117.714 37.5381C115.476 37.5381 114.452 39.2513 114.338 40.736H121.128C121.052 39.2893 120.066 37.5381 117.714 37.5381Z" fill="#124BD8"/>
<path d="M134.252 47.7792L130.572 42.7538L128.866 44.5051V47.7792H126.248V31.0279H128.866V41.4975L134.176 35.6345H137.438L132.431 41.1168L137.552 47.7411H134.252V47.7792Z" fill="#124BD8"/>
<path d="M139.979 44.9619V37.9569H137.969V35.6726H139.979V32.3604H142.597V35.6726H145.062V37.9569H142.597V44.3147C142.597 45.1523 143.014 45.7614 143.734 45.7614C144.228 45.7614 144.683 45.533 144.872 45.3046L145.479 47.3223C144.986 47.7411 144.228 48.0838 143.014 48.0838C141.041 48.0838 139.979 46.9797 139.979 44.9619Z" fill="#124BD8"/>
<path d="M162.245 47.7792V39.8604C162.245 38.566 161.676 37.6903 160.234 37.6903C159.059 37.6903 157.959 38.4898 157.428 39.2893V47.7792H154.81V39.8604C154.81 38.566 154.241 37.6903 152.838 37.6903C151.662 37.6903 150.6 38.5279 150.031 39.2893V47.7792H147.414V35.6726H150.031V37.3096C150.562 36.5863 152.117 35.368 153.976 35.368C155.759 35.368 156.859 36.2817 157.276 37.5761C157.959 36.5101 159.552 35.368 161.372 35.368C163.572 35.368 164.862 36.5863 164.862 39.0228V47.7792H162.245Z" fill="#124BD8"/>
<path d="M175.672 47.7792V46.4467C174.762 47.5127 173.359 48.0837 171.728 48.0837C169.793 48.0837 167.555 46.7132 167.555 44.0863C167.555 41.269 169.755 40.1269 171.728 40.1269C173.397 40.1269 174.762 40.6599 175.672 41.6878V39.8985C175.672 38.4898 174.497 37.6523 172.828 37.6523C171.462 37.6523 170.286 38.1472 169.262 39.2132L168.162 37.3858C169.566 36.0152 171.31 35.4441 173.245 35.4441C175.938 35.4441 178.29 36.5863 178.29 39.8223V47.8934H175.672V47.7792ZM175.672 45.0381V43.1726C175.066 42.335 173.928 41.9162 172.79 41.9162C171.31 41.9162 170.172 42.7919 170.172 44.0863C170.172 45.4188 171.31 46.2563 172.79 46.2563C173.928 46.2944 175.066 45.8375 175.672 45.0381Z" fill="#124BD8"/>
<path d="M181.703 47.7792V35.6726H184.321V37.4238C185.231 36.2817 186.71 35.368 188.266 35.368V37.9949C188.038 37.9568 187.772 37.9188 187.469 37.9188C186.331 37.9188 184.852 38.6802 184.359 39.5558V47.8172H181.703V47.7792Z" fill="#124BD8"/>
<path d="M198.393 47.7792L194.714 42.7538L193.007 44.5051V47.7792H190.39V31.0279H193.007V41.4975L198.317 35.6345H201.579L196.572 41.1168L201.693 47.7411H198.393V47.7792Z" fill="#124BD8"/>
<path d="M202.831 41.7259C202.831 38.2233 205.372 35.368 208.976 35.368C212.617 35.368 214.893 38.1472 214.893 41.9543V42.6015H205.6C205.79 44.3909 207.155 45.9518 209.431 45.9518C210.645 45.9518 212.01 45.4568 212.883 44.5812L214.097 46.2944C212.883 47.4365 211.1 48.0838 209.203 48.0838C205.524 48.0838 202.831 45.5711 202.831 41.7259ZM208.938 37.5381C206.7 37.5381 205.676 39.2513 205.562 40.736H212.352C212.276 39.2893 211.328 37.5381 208.938 37.5381Z" fill="#124BD8"/>
<path d="M218.041 44.9619V37.9569H216.031V35.6726H218.041V32.3604H220.659V35.6726H223.124V37.9569H220.659V44.3147C220.659 45.1523 221.076 45.7614 221.797 45.7614C222.29 45.7614 222.745 45.533 222.934 45.3046L223.541 47.3223C223.048 47.7411 222.29 48.0838 221.076 48.0838C219.103 48.0838 218.041 46.9797 218.041 44.9619Z" fill="#124BD8"/>
<path d="M225.172 32.5508C225.172 31.637 225.893 30.9137 226.803 30.9137C227.714 30.9137 228.434 31.637 228.434 32.5508C228.434 33.4645 227.714 34.1878 226.803 34.1878C225.893 34.1878 225.172 33.4645 225.172 32.5508ZM225.476 47.7792V35.6726H228.093V47.7792H225.476Z" fill="#124BD8"/>
<path d="M239.662 47.7792V40.203C239.662 38.2995 238.676 37.6903 237.197 37.6903C235.869 37.6903 234.731 38.4898 234.086 39.2893V47.7792H231.469V35.6726H234.086V37.3096C234.883 36.3579 236.476 35.368 238.372 35.368C240.99 35.368 242.279 36.7766 242.279 39.2513V47.7792H239.662Z" fill="#124BD8"/>
<path d="M245.541 50.901L246.755 48.9974C247.741 50.1396 248.993 50.5584 250.624 50.5584C252.331 50.5584 254.19 49.7589 254.19 47.17V45.7995C253.279 47.0177 251.876 47.8172 250.321 47.8172C247.248 47.8172 244.972 45.571 244.972 41.5736C244.972 37.6142 247.21 35.3299 250.321 35.3299C251.838 35.3299 253.203 36.0152 254.19 37.3096V35.6345H256.807V47.132C256.807 51.5101 253.545 52.6903 250.586 52.6903C248.576 52.6903 247.059 52.2715 245.541 50.901ZM254.19 43.8578V39.3274C253.583 38.4518 252.331 37.7284 251.079 37.7284C248.993 37.7284 247.665 39.2893 247.665 41.6117C247.665 43.934 248.993 45.4949 251.079 45.4949C252.331 45.4568 253.583 44.7335 254.19 43.8578Z" fill="#124BD8"/>
<path d="M266.745 47.7792V31.0279H274.938C278.01 31.0279 279.679 32.9315 279.679 35.2919C279.679 37.3858 278.314 38.7944 276.797 39.1371C278.579 39.4036 280.021 41.1929 280.021 43.2107C280.021 45.8376 278.314 47.7411 275.165 47.7411H266.745V47.7792ZM276.721 35.7868C276.721 34.5685 275.886 33.6168 274.407 33.6168H269.703V37.9188H274.407C275.848 37.9569 276.721 37.0812 276.721 35.7868ZM277.024 42.868C277.024 41.6117 276.152 40.5457 274.483 40.5457H269.666V45.2284H274.483C276.076 45.1904 277.024 44.3147 277.024 42.868Z" fill="#124BD8"/>
<path d="M282.183 41.7259C282.183 38.2233 284.535 35.368 288.403 35.368C292.272 35.368 294.624 38.2233 294.624 41.7259C294.624 45.1903 292.272 48.0837 288.403 48.0837C284.535 48.0837 282.183 45.1903 282.183 41.7259ZM285.748 33.9975C284.952 33.9975 284.269 33.3502 284.269 32.5508C284.269 31.7132 284.952 31.066 285.748 31.066C286.583 31.066 287.228 31.7132 287.228 32.5508C287.228 33.3122 286.583 33.9975 285.748 33.9975ZM291.855 41.7259C291.855 39.5939 290.641 37.7284 288.366 37.7284C286.128 37.7284 284.876 39.5939 284.876 41.7259C284.876 43.8959 286.128 45.7614 288.366 45.7614C290.641 45.7614 291.855 43.8579 291.855 41.7259ZM290.983 33.9975C290.186 33.9975 289.541 33.3502 289.541 32.5508C289.541 31.7132 290.186 31.066 290.983 31.066C291.817 31.066 292.462 31.7132 292.462 32.5508C292.462 33.3122 291.817 33.9975 290.983 33.9975Z" fill="#124BD8"/>
<path d="M297.279 47.7792V35.6726H299.897V37.4238C300.807 36.2817 302.286 35.368 303.841 35.368V37.9949C303.614 37.9568 303.348 37.9188 303.045 37.9188C301.907 37.9188 300.428 38.6802 299.934 39.5558V47.8172H297.279V47.7792Z" fill="#124BD8"/>
<path d="M304.903 46.1802L306.117 44.3147C306.952 45.1904 308.659 45.9899 310.176 45.9899C311.769 45.9899 312.566 45.3426 312.566 44.3909C312.566 41.9924 305.245 43.7056 305.245 39.0609C305.245 37.0812 306.952 35.4061 309.986 35.4061C312.034 35.4061 313.59 36.1294 314.652 37.0812L313.552 38.9467C312.831 38.1472 311.503 37.5 309.986 37.5C308.621 37.5 307.748 38.1472 307.748 39.0228C307.748 41.1548 315.069 39.5558 315.069 44.3528C315.069 46.5229 313.286 48.1599 310.024 48.1599C308.014 48.0838 306.155 47.3985 304.903 46.1802Z" fill="#124BD8"/>
<path d="M317.003 41.7259C317.003 38.2233 319.545 35.368 323.148 35.368C326.79 35.368 329.066 38.1472 329.066 41.9543V42.6015H319.772C319.962 44.3909 321.328 45.9518 323.603 45.9518C324.817 45.9518 326.183 45.4568 327.055 44.5812L328.269 46.2944C327.055 47.4365 325.272 48.0838 323.376 48.0838C319.697 48.0838 317.003 45.5711 317.003 41.7259ZM323.11 37.5381C320.872 37.5381 319.848 39.2513 319.735 40.736H326.524C326.486 39.2893 325.5 37.5381 323.11 37.5381Z" fill="#124BD8"/>
</g>
<defs>
<clipPath id="clip0_72_5">
<rect width="340" height="75" fill="white"/>
</clipPath>
</defs>
</svg>
