<svg width="46" height="46" viewBox="0 0 46 46" fill="none" xmlns="http://www.w3.org/2000/svg">
<g clip-path="url(#clip0_15_278)">
<path d="M43.9502 30.8149C44.8414 28.4164 45.329 25.8221 45.329 23.1139C45.329 20.4057 44.8414 17.8115 43.9502 15.4129L23.1616 13.4876L2.37294 15.4129C1.48191 17.8115 0.994141 20.4057 0.994141 23.1139C0.994141 25.8221 1.48191 28.4164 2.37294 30.8149L23.1616 32.7402L43.9502 30.8149Z" fill="#F0F0F0"/>
<path d="M23.1616 45.2543C32.6927 45.2543 40.8181 39.246 43.9502 30.8148H2.37286C5.50505 39.246 13.6303 45.2543 23.1616 45.2543Z" fill="#D80027"/>
<path d="M23.1616 0.973373C13.6303 0.973373 5.50506 6.98175 2.37286 15.4129H43.9503C40.8181 6.98175 32.6927 0.973373 23.1616 0.973373Z" fill="#D80027"/>
</g>
<defs>
<clipPath id="clip0_15_278">
<rect width="44.3349" height="44.281" fill="white" transform="translate(0.994141 0.973373)"/>
</clipPath>
</defs>
</svg>
