<svg width="40" height="42" viewBox="0 0 40 42" fill="none" xmlns="http://www.w3.org/2000/svg">
<path d="M24.0183 23.7072H16.1397C15.7999 23.7072 15.5245 23.9825 15.5245 24.3224C15.5245 24.6622 15.7999 24.9376 16.1397 24.9376H24.0183C24.3582 24.9376 24.6335 24.6622 24.6335 24.3224C24.6335 23.9825 24.3582 23.7072 24.0183 23.7072Z" fill="white"/>
<path d="M15.9977 19.556V17.8114H17.1106C17.4505 17.8114 17.7258 17.5361 17.7258 17.1962C17.7258 16.8564 17.4505 16.581 17.1106 16.581H15.9977V15.5394H17.2598C17.5997 15.5394 17.875 15.264 17.875 14.9242C17.875 14.5843 17.5997 14.309 17.2598 14.309H15.3824C15.0426 14.309 14.7672 14.5843 14.7672 14.9242V19.556C14.7672 19.8959 15.0426 20.1712 15.3824 20.1712C15.7223 20.1712 15.9977 19.8959 15.9977 19.556Z" fill="white"/>
<path d="M22.0413 15.5396C22.3812 15.5396 22.6565 15.2642 22.6565 14.9243C22.6565 14.5845 22.3812 14.3091 22.0413 14.3091H20.1639C19.8241 14.3091 19.5487 14.5845 19.5487 14.9243V19.5561C19.5487 19.896 19.8241 20.1714 20.1639 20.1714C20.5038 20.1714 20.7792 19.896 20.7792 19.5561V17.8116H21.8921C22.2319 17.8116 22.5073 17.5362 22.5073 17.1963C22.5073 16.8565 22.2319 16.5811 21.8921 16.5811H20.7792V15.5396H22.0413Z" fill="white"/>
<path d="M26.5493 15.4998C26.8892 15.4998 27.1645 15.2244 27.1645 14.8845C27.1645 14.5447 26.8892 14.2693 26.5493 14.2693H24.6011C24.2613 14.2693 23.9859 14.5447 23.9859 14.8845V19.5079C23.9859 19.8477 24.2613 20.1231 24.6011 20.1231H26.5493C26.8892 20.1231 27.1645 19.8477 27.1645 19.5079C27.1645 19.168 26.8892 18.8927 26.5493 18.8927H25.2164V17.8114H26.4057C26.7455 17.8114 27.0209 17.536 27.0209 17.1962C27.0209 16.8563 26.7455 16.5809 26.4057 16.5809H25.2164V15.4998H26.5493Z" fill="white"/>
<path d="M32.7642 16.0759C32.7642 15.068 31.9135 14.248 30.8677 14.248H29.6278C29.6276 14.248 29.6274 14.248 29.6271 14.248C29.6269 14.248 29.6266 14.248 29.6264 14.248C29.2865 14.248 29.0111 14.5234 29.0111 14.8633V19.5293C29.0111 19.8692 29.2865 20.1445 29.6264 20.1445C29.9662 20.1445 30.2416 19.8692 30.2416 19.5293V18.2932L31.6872 19.9358C31.8088 20.074 31.9787 20.1445 32.1493 20.1445C32.2937 20.1445 32.4386 20.094 32.5555 19.9911C32.8106 19.7667 32.8353 19.3779 32.6109 19.1228L31.4579 17.8128C32.2154 17.573 32.7642 16.8852 32.7642 16.0759ZM30.8677 16.6733C30.7221 16.6733 30.4797 16.6743 30.2481 16.6754C30.2469 16.4499 30.2455 15.7148 30.2448 15.4784H30.8677C31.2287 15.4784 31.5337 15.752 31.5337 16.0758C31.5338 16.3997 31.2288 16.6733 30.8677 16.6733Z" fill="white"/>
<path d="M10.1841 14.2919C8.55846 14.2919 7.23587 15.6145 7.23587 17.2401C7.23587 18.8657 8.55846 20.1883 10.1841 20.1883C11.8098 20.1883 13.1324 18.8657 13.1324 17.2401C13.1324 15.6145 11.8098 14.2919 10.1841 14.2919ZM10.1841 18.9578C9.23686 18.9578 8.46634 18.1872 8.46634 17.2401C8.46634 16.2929 9.23694 15.5223 10.1841 15.5223C11.1312 15.5223 11.9019 16.2929 11.9019 17.2401C11.9019 18.1872 11.1313 18.9578 10.1841 18.9578Z" fill="white"/>
<path d="M39.1989 19.3483L36.2505 16.3668V2.92884C36.2505 1.31389 34.9366 0 33.3215 0H6.83603C5.22108 0 3.9071 1.31389 3.9071 2.92884V16.1438L0.777853 19.3725C0.765467 19.3853 0.754064 19.3988 0.74299 19.4123C0.561619 19.606 0.458588 19.8615 0.458588 20.1383V39.0153C0.458588 40.6611 1.7975 42 3.44338 42H36.5566C38.2024 42 39.5414 40.6611 39.5414 39.0153V20.1296C39.5414 19.8251 39.4162 19.5465 39.1989 19.3483ZM37.5572 19.4381L36.2505 20.1987V18.1167L37.5572 19.4381ZM3.9071 20.2905L2.43316 19.4326L3.9071 17.9119V20.2905ZM38.3109 39.0153C38.3109 39.9826 37.5239 40.7695 36.5566 40.7695H3.44338C2.47606 40.7695 1.68906 39.9826 1.68906 39.0153V20.4232L19.3004 30.6738L19.3013 30.6743L32.8397 38.5542C32.9371 38.6108 33.0435 38.6378 33.1486 38.6378C33.3605 38.6378 33.5667 38.5283 33.6809 38.3319C33.8518 38.0383 33.7523 37.6616 33.4586 37.4907L21.2231 30.369L34.2351 22.7955C34.5288 22.6245 34.6283 22.2479 34.4574 21.9543C34.2864 21.6606 33.9097 21.5611 33.6162 21.732L20.0806 29.6104C20.0309 29.6392 19.9695 29.6393 19.9197 29.6104L18.7252 28.9152L5.13757 21.0066V2.92884C5.13757 1.99237 5.89948 1.23047 6.83603 1.23047H33.3215C34.258 1.23047 35.0199 1.99237 35.0199 2.92884V20.9149L33.6162 21.732C33.3225 21.9028 33.223 22.2795 33.3939 22.5731C33.5649 22.8669 33.9415 22.9663 34.2351 22.7955L35.9271 21.8106C35.9294 21.8094 35.9316 21.8079 35.9339 21.8067L38.3109 20.4232V39.0153Z" fill="white"/>
<path d="M16.5054 12.3446H23.6526C24.3891 12.3446 24.9883 11.7454 24.9883 11.0089V6.34114C24.9883 5.60458 24.3891 5.00542 23.6526 5.00542H22.1236V4.3486C22.1236 3.55076 21.4746 2.90173 20.6767 2.90173H19.4811C18.6833 2.90173 18.0343 3.55076 18.0343 4.3486V5.00542H16.5053C15.7687 5.00542 15.1696 5.60466 15.1696 6.34114V11.0089C15.1697 11.7454 15.7689 12.3446 16.5054 12.3446ZM19.2648 4.3486C19.2648 4.22933 19.3619 4.1322 19.4812 4.1322H20.6768C20.7961 4.1322 20.8932 4.22933 20.8932 4.3486V5.00542H19.2648V4.3486ZM16.4001 6.34114C16.4001 6.28306 16.4473 6.23589 16.5054 6.23589H23.6526C23.7107 6.23589 23.7578 6.28306 23.7578 6.34114V11.0089C23.7578 11.067 23.7107 11.1141 23.6526 11.1141H16.5054C16.4473 11.1141 16.4001 11.067 16.4001 11.0089V6.34114Z" fill="white"/>
</svg>
