<svg width="42" height="36" viewBox="0 0 42 36" fill="none" xmlns="http://www.w3.org/2000/svg">
<path d="M11.9006 14.4668H5.09399C4.75422 14.4668 4.47876 14.7422 4.47876 15.082C4.47876 15.4219 4.75422 15.6973 5.09399 15.6973H11.9006C12.2404 15.6973 12.5159 15.4219 12.5159 15.082C12.5159 14.7422 12.2404 14.4668 11.9006 14.4668Z" fill="white"/>
<path d="M11.9006 11.4088H5.09399C4.75422 11.4088 4.47876 11.6842 4.47876 12.024C4.47876 12.3639 4.75422 12.6393 5.09399 12.6393H11.9006C12.2404 12.6393 12.5159 12.3639 12.5159 12.024C12.5159 11.6842 12.2404 11.4088 11.9006 11.4088Z" fill="white"/>
<path d="M40.5149 23.9342C40.4057 23.9342 40.3093 23.8656 40.2749 23.7638C40.1577 23.4166 40.0157 23.074 39.8529 22.7456C39.8048 22.6482 39.8241 22.531 39.9016 22.4535C40.4806 21.8744 40.4806 20.9323 39.9016 20.3531L38.5048 18.9564C37.9258 18.3775 36.9837 18.3773 36.4043 18.9567C36.3271 19.0339 36.2099 19.0534 36.1126 19.0052C35.784 18.8423 35.4414 18.7003 35.0945 18.5832C34.9924 18.5488 34.9238 18.4522 34.9238 18.3431C34.9238 17.5243 34.2576 16.858 33.4387 16.858H31.4633C30.6445 16.858 29.9782 17.5243 29.9782 18.3431C29.9782 18.4522 29.9097 18.5488 29.8078 18.5831C29.4608 18.7003 29.1181 18.8422 28.7895 19.0051C28.6923 19.0535 28.575 19.034 28.4975 18.9564C27.9185 18.3775 26.9764 18.3775 26.3973 18.9564L25.0005 20.3532C24.4215 20.9323 24.4215 21.8744 25.0008 22.4537C25.0779 22.5308 25.0975 22.648 25.0492 22.7454C24.8864 23.074 24.7445 23.4167 24.6273 23.7635C24.5929 23.8656 24.4963 23.9341 24.3872 23.9341C23.5684 23.9341 22.9021 24.6003 22.9021 25.4192V27.3945C22.9021 28.2134 23.5684 28.8796 24.3872 28.8796C24.4963 28.8796 24.5928 28.9482 24.6272 29.0502C24.7444 29.3971 24.8864 29.7396 25.0492 30.0683C25.0975 30.1656 25.0779 30.2829 25.0006 30.3603C24.4201 30.9406 24.42 31.8802 25.0006 32.4606L26.3973 33.8573C26.9777 34.4377 27.9169 34.438 28.4977 33.8571C28.5749 33.7799 28.6922 33.7603 28.7896 33.8087C29.1182 33.9715 29.4608 34.1135 29.8077 34.2306C29.9097 34.2651 29.9782 34.3616 29.9782 34.4707C29.9782 35.2896 30.6445 35.9558 31.4633 35.9558H33.4387C34.2576 35.9558 34.9238 35.2896 34.9238 34.4707C34.9238 34.3616 34.9923 34.2651 35.0944 34.2306C35.4414 34.1135 35.7839 33.9716 36.1127 33.8086C36.2099 33.7603 36.3271 33.7799 36.4046 33.8573C36.9849 34.4377 37.9244 34.4379 38.5048 33.8574L39.9016 32.4606C40.4818 31.8805 40.4823 30.9409 39.9014 30.3602C39.8242 30.283 39.8047 30.1657 39.8529 30.0684C40.0157 29.7398 40.1577 29.3973 40.2749 29.0503C40.3093 28.9483 40.4058 28.8797 40.5149 28.8797C41.3337 28.8797 42 28.2135 42 27.3946V25.4193C42 24.6004 41.3337 23.9342 40.5149 23.9342ZM40.7695 27.3945C40.7695 27.535 40.6553 27.6492 40.5149 27.6492C39.8774 27.6492 39.3125 28.0541 39.1091 28.6565C39.0095 28.9515 38.8888 29.2427 38.7503 29.522C38.4675 30.0928 38.5804 30.7791 39.0315 31.2304C39.1309 31.3297 39.131 31.4909 39.0315 31.5904L37.6347 32.9873C37.5358 33.0862 37.3747 33.0873 37.2743 32.9869C36.8234 32.5359 36.1369 32.4231 35.5664 32.7061C35.287 32.8445 34.9957 32.9651 34.7008 33.0648C34.0983 33.2681 33.6934 33.8332 33.6934 34.4706C33.6934 34.611 33.5792 34.7253 33.4388 34.7253H31.4634C31.3231 34.7253 31.2088 34.611 31.2088 34.4706C31.2088 33.8332 30.804 33.2682 30.2015 33.0648C29.9065 32.9651 29.6153 32.8444 29.3361 32.7061C29.1265 32.6022 28.9013 32.5517 28.6779 32.5517C28.2929 32.5517 27.9132 32.7017 27.6276 32.9873C27.5287 33.0862 27.3675 33.0872 27.2676 32.9872L25.8708 31.5904C25.7722 31.4919 25.7704 31.3309 25.871 31.2301C26.3219 30.7792 26.4347 30.0928 26.1519 29.5221C26.0134 29.2426 25.8927 28.9514 25.7932 28.6564C25.5897 28.0539 25.0247 27.6492 24.3873 27.6492C24.247 27.6492 24.1327 27.5349 24.1327 27.3945V25.4192C24.1327 25.2789 24.247 25.1646 24.3873 25.1646C25.0246 25.1646 25.5896 24.7598 25.7932 24.1572C25.8927 23.8623 26.0134 23.5711 26.1518 23.2917C26.4346 22.7208 26.3218 22.0344 25.8707 21.5834C25.7714 21.4841 25.7714 21.3225 25.8707 21.2232L27.2674 19.8265C27.3668 19.7272 27.5284 19.7272 27.6278 19.8267C28.0787 20.2776 28.7651 20.3905 29.3359 20.1076C29.6153 19.9691 29.9065 19.8486 30.2015 19.749C30.804 19.5455 31.2087 18.9804 31.2087 18.3431C31.2087 18.2027 31.323 18.0885 31.4633 18.0885H33.4387C33.5791 18.0885 33.6933 18.2028 33.6933 18.3431C33.6933 18.9804 34.0982 19.5454 34.7008 19.7491C34.9957 19.8486 35.2868 19.9692 35.5662 20.1077C36.137 20.3905 36.8235 20.2776 37.2746 19.8265C37.3738 19.7272 37.5354 19.7272 37.6347 19.8265L39.0315 21.2232C39.1307 21.3225 39.1307 21.4841 39.0313 21.5836C38.5804 22.0345 38.4675 22.7208 38.7503 23.2918C38.8887 23.571 39.0094 23.8622 39.109 24.1573C39.3125 24.7599 39.8774 25.1646 40.5148 25.1646C40.6552 25.1646 40.7694 25.2789 40.7694 25.4192V27.3945H40.7695Z" fill="white"/>
<path d="M32.4512 22.2097C30.1369 22.2097 28.2541 24.0925 28.2541 26.4068C28.2541 28.721 30.1369 30.6038 32.4512 30.6038C34.7654 30.6038 36.6482 28.721 36.6482 26.4068C36.6482 24.0925 34.7654 22.2097 32.4512 22.2097ZM32.4512 29.3733C30.8154 29.3733 29.4846 28.0425 29.4846 26.4068C29.4846 24.7711 30.8154 23.4402 32.4512 23.4402C34.087 23.4402 35.4177 24.7711 35.4177 26.4068C35.4177 28.0425 34.087 29.3733 32.4512 29.3733Z" fill="white"/>
<path d="M22.4638 31.487C22.4637 31.487 22.4636 31.487 22.4636 31.487L2.81662 31.4936C2.81646 31.4936 2.8163 31.4936 2.81613 31.4936C1.93996 31.4936 1.23055 30.7845 1.23055 29.9079V9.6352C1.23055 8.76091 1.94184 8.04954 2.81622 8.04954H21.7458C22.8448 8.04954 23.8501 7.4037 24.307 6.40424L26.2279 2.20251C26.4851 1.63994 27.0511 1.27622 27.6697 1.27613L36.3913 1.27466H36.3916C37.2677 1.27466 37.9771 1.98365 37.9772 2.86024L37.9786 16.7784C37.9786 17.1182 38.254 17.3936 38.5939 17.3936C38.9337 17.3936 39.2091 17.1181 39.209 16.7782L39.2077 2.86008C39.2075 1.30402 37.9484 0.0441895 36.3916 0.0441895C36.3914 0.0441895 36.3912 0.0441895 36.391 0.0441895L27.6695 0.0456658C26.5707 0.0459119 25.5656 0.691662 25.1087 1.69097L24.7821 2.40546L2.81695 2.39947C2.81671 2.39947 2.81646 2.39947 2.81622 2.39947C1.26008 2.39947 0 3.65865 0 5.2156V29.9079C0 31.464 1.2591 32.724 2.81605 32.724H2.81695L22.4639 32.7175C22.8037 32.7174 23.0791 32.4419 23.079 32.102C23.0788 31.7624 22.8035 31.487 22.4638 31.487ZM2.81622 3.62994H2.81662L24.2196 3.63585L23.1879 5.89269C22.9306 6.45542 22.3645 6.81907 21.7457 6.81907H2.81613C2.22846 6.81907 1.68246 7.00028 1.23047 7.30937V5.2156C1.23047 4.33935 1.93955 3.62994 2.81622 3.62994Z" fill="white"/>
</svg>
