<svg width="47" height="46" viewBox="0 0 47 46" fill="none" xmlns="http://www.w3.org/2000/svg">
<g clip-path="url(#clip0_13_83)">
<path d="M2.77899 30.6764C5.9111 39.1074 14.0364 45.1159 23.5676 45.1159C33.0989 45.1159 41.2242 39.1074 44.3563 30.6764L23.5676 28.7512L2.77899 30.6764Z" fill="#FFDA44"/>
<path d="M23.5676 0.8349C14.0364 0.8349 5.9111 6.84327 2.77899 15.2744L23.5676 17.1996L44.3563 15.2743C41.2242 6.84327 33.0989 0.8349 23.5676 0.8349Z" fill="black"/>
<path d="M2.77894 15.2744C1.88792 17.6729 1.40015 20.2671 1.40015 22.9754C1.40015 25.6836 1.88792 28.2778 2.77894 30.6764H44.3563C45.2474 28.2778 45.735 25.6836 45.735 22.9754C45.735 20.2671 45.2474 17.6729 44.3562 15.2744H2.77894Z" fill="#D80027"/>
</g>
<defs>
<clipPath id="clip0_13_83">
<rect width="46.3053" height="44.281" fill="white" transform="translate(0.260986 0.8349)"/>
</clipPath>
</defs>
</svg>
