<svg width="42" height="42" viewBox="0 0 42 42" fill="none" xmlns="http://www.w3.org/2000/svg">
<path d="M39.3393 29.6502C38.3559 28.5328 37.1673 27.677 35.8588 27.144C36.6435 26.6233 37.3224 25.9196 37.8511 25.0792C38.3797 24.2387 38.746 23.2805 38.9259 22.2675C39.1058 21.2546 39.0953 20.2097 38.8949 19.2017C38.6946 18.1937 38.3091 17.2453 37.7636 16.4189C37.2182 15.5925 36.5252 14.9067 35.7302 14.4067C34.9352 13.9066 34.0561 13.6037 33.1509 13.5176C32.2456 13.4316 31.3345 13.5644 30.4776 13.9074C29.6207 14.2505 28.8373 14.7959 28.1788 15.5079C27.708 13.7235 26.7441 12.1593 25.4301 11.0473C24.1162 9.93526 22.5221 9.33472 20.8844 9.33472C19.2467 9.33472 17.6526 9.93526 16.3387 11.0473C15.0247 12.1593 14.0608 13.7235 13.59 15.5079C12.9332 14.7846 12.1487 14.2285 11.2885 13.8765C10.4283 13.5245 9.5122 13.3847 8.6009 13.4664C7.6896 13.548 6.80399 13.8493 6.00287 14.3501C5.20176 14.851 4.50346 15.54 3.95433 16.3713C3.4052 17.2027 3.01782 18.1575 2.81789 19.1722C2.61795 20.187 2.61005 21.2385 2.79471 22.257C2.97936 23.2754 3.35235 24.2376 3.8889 25.0795C4.42545 25.9215 5.1133 26.6239 5.90677 27.1403C4.07854 27.8945 2.49852 29.2702 1.3811 31.0809C0.263683 32.8916 -0.337034 35.0495 -0.339538 37.2618V40.1922C-0.339592 40.2987 -0.321183 40.4043 -0.285363 40.5027C-0.249543 40.6012 -0.197015 40.6906 -0.130783 40.766C-0.0645512 40.8413 0.0140863 40.9011 0.100633 40.9418C0.18718 40.9826 0.279938 41.0035 0.373604 41.0035H9.65587V41.2816C9.65581 41.3882 9.67422 41.4937 9.71004 41.5921C9.74586 41.6906 9.79839 41.7801 9.86462 41.8554C9.93085 41.9308 10.0095 41.9905 10.096 42.0313C10.1826 42.072 10.2753 42.093 10.369 42.0929H31.3998C31.4935 42.093 31.5862 42.072 31.6728 42.0313C31.7593 41.9905 31.8379 41.9308 31.9042 41.8554C31.9704 41.7801 32.0229 41.6906 32.0588 41.5921C32.0946 41.4937 32.113 41.3882 32.1129 41.2816V41.0035H41.396C41.5851 41.0035 41.7665 40.918 41.9003 40.7658C42.034 40.6137 42.1092 40.4073 42.1092 40.1922V37.2618C42.1127 35.8478 41.8698 34.4469 41.3943 33.1404C40.9189 31.8339 40.2204 30.6476 39.3393 29.6502ZM32.6484 15.0985C33.6 15.1028 34.531 15.4151 35.3323 15.999C36.1337 16.5829 36.7724 17.4142 37.1737 18.3958C37.5751 19.3775 37.7225 20.4688 37.5987 21.5422C37.475 22.6156 37.0851 23.6267 36.4749 24.4574C35.8646 25.2881 35.059 25.904 34.1524 26.233C33.2458 26.5621 32.2756 26.5907 31.3552 26.3156C30.4348 26.0405 29.6022 25.473 28.9549 24.6795C28.3075 23.8859 27.8721 22.8992 27.6996 21.8345V21.8248C28.2255 20.6302 28.5002 19.313 28.502 17.977C28.502 17.8495 28.4934 17.7262 28.4885 17.6005C28.4885 17.5959 28.4938 17.5857 28.4938 17.5825C28.9556 16.8142 29.5756 16.1861 30.2998 15.7531C31.024 15.3202 31.8303 15.0954 32.6484 15.0985ZM28.2811 27.717C27.206 26.7052 25.9637 25.9486 24.6274 25.4918C25.4046 24.9959 26.099 24.3483 26.6788 23.5785C27.2282 25.0786 28.1979 26.3302 29.4372 27.1384C29.0408 27.3014 28.6546 27.4947 28.2811 27.717ZM20.8848 10.9615C22.439 10.9651 23.9354 11.6319 25.0782 12.8302C26.221 14.0284 26.9269 15.6708 27.0565 17.4327C27.0696 17.6112 27.0101 17.8092 27.0761 17.9751C27.0794 19.1405 26.8233 20.2878 26.3316 21.3102C26.2595 21.332 26.2346 21.4117 26.2297 21.5072C25.6739 22.584 24.8768 23.4737 23.9198 24.0853C22.9628 24.697 21.8803 25.0086 20.7827 24.9885C19.6852 24.9684 18.612 24.6172 17.6729 23.9708C16.7337 23.3243 15.9622 22.4059 15.4372 21.3093C14.9455 20.2872 14.6893 19.1402 14.6927 17.9751C14.6927 17.7929 14.6996 17.6112 14.7135 17.4258C14.8442 15.6651 15.5506 14.0241 16.6932 12.8273C17.8359 11.6304 19.3316 10.9646 20.8848 10.9615ZM13.4865 27.717C13.113 27.4956 12.7269 27.3029 12.3308 27.1403C13.57 26.3321 14.5397 25.0805 15.0888 23.5804C15.6687 24.3502 16.363 24.998 17.1402 25.4941C15.8042 25.9506 14.5619 26.7063 13.4865 27.717ZM4.08765 20.7988C4.09344 19.5788 4.44136 18.3926 5.08077 17.4131C5.72018 16.4335 6.61772 15.7117 7.64273 15.3526C8.66774 14.9936 9.76673 15.0161 10.7797 15.4168C11.7927 15.8175 12.6669 16.5755 13.275 17.5806C13.2761 17.5888 13.2779 17.5969 13.2803 17.6047C13.2754 17.7285 13.2664 17.8509 13.2664 17.9756C13.2682 19.3142 13.5439 20.6339 14.0716 21.8303V21.8354C13.8415 23.2375 13.1597 24.4915 12.1598 25.352C11.1598 26.2125 9.91364 26.6175 8.66502 26.488C7.4164 26.3584 6.25521 25.7035 5.40863 24.6514C4.56205 23.5992 4.091 22.2256 4.08765 20.7993V20.7988ZM1.08675 39.3828V37.2637C1.0858 35.7412 1.41934 34.2426 2.05705 32.9041C2.69477 31.5656 3.61643 30.4296 4.73826 29.5994C5.86009 28.7692 7.14652 28.2712 8.48061 28.1505C9.81471 28.0298 11.1542 28.2903 12.3772 28.9084C10.6287 31.1053 9.65902 33.9621 9.65587 36.9257V39.3828H1.08675ZM30.6866 40.474H11.0822V36.9257C11.0817 35.5712 11.3158 34.2299 11.7712 32.9783C12.2266 31.7268 12.8944 30.5896 13.7362 29.6318C14.5781 28.6739 15.5777 27.9142 16.6778 27.396C17.7779 26.8779 18.957 26.6114 20.1476 26.6118H21.6216C22.8122 26.6115 23.9912 26.8782 25.0912 27.3964C26.1912 27.9147 27.1906 28.6744 28.0325 29.6322C28.8743 30.59 29.542 31.7271 29.9974 32.9786C30.4528 34.23 30.687 35.5713 30.6866 36.9257V40.474ZM40.6829 39.3828H32.1129V36.9257C32.1095 33.9628 31.14 31.1067 29.392 28.9103C30.6149 28.2923 31.9543 28.0317 33.2882 28.1523C34.6222 28.2729 35.9086 28.7708 37.0304 29.6008C38.1522 30.4308 39.0739 31.5665 39.7118 32.9047C40.3497 34.243 40.6835 35.7414 40.6829 37.2637V39.3828Z" fill="white"/>
<path d="M6.57141 9.92354C6.72425 10.0974 6.93152 10.195 7.14763 10.195C7.36374 10.195 7.57101 10.0974 7.72385 9.92354L9.09268 8.36634L10.4615 9.92354C10.5372 10.0096 10.6271 10.0779 10.7259 10.1245C10.8248 10.1711 10.9308 10.195 11.0379 10.195C11.1449 10.195 11.2509 10.171 11.3498 10.1243C11.4486 10.0777 11.5385 10.0094 11.6141 9.92331C11.6898 9.83719 11.7498 9.73496 11.7908 9.62246C11.8317 9.50996 11.8528 9.38939 11.8528 9.26763C11.8527 9.14586 11.8316 9.0253 11.7907 8.91281C11.7497 8.80033 11.6896 8.69813 11.6139 8.61204L10.2451 7.05531L11.6139 5.49811C11.7668 5.32426 11.8527 5.08844 11.8528 4.84253C11.8528 4.59662 11.767 4.36076 11.6141 4.18685C11.4613 4.01293 11.254 3.9152 11.0379 3.91516C10.8217 3.91512 10.6144 4.01276 10.4615 4.18662L9.09268 5.74381L7.72385 4.18662C7.57097 4.01276 7.36365 3.91512 7.14749 3.91516C6.93132 3.9152 6.72403 4.01293 6.57121 4.18685C6.41838 4.36076 6.33255 4.59662 6.33259 4.84253C6.33263 5.08844 6.41853 5.32426 6.57141 5.49811L7.94024 7.05531L6.57141 8.61204C6.49569 8.69814 6.43563 8.80037 6.39465 8.91289C6.35367 9.0254 6.33258 9.146 6.33258 9.26779C6.33258 9.38958 6.35367 9.51018 6.39465 9.62269C6.43563 9.73521 6.49569 9.83744 6.57141 9.92354Z" fill="white"/>
<path d="M30.1536 9.92354C30.3065 10.0974 30.5137 10.195 30.7298 10.195C30.946 10.195 31.1532 10.0974 31.3061 9.92354L32.6749 8.36634L34.0437 9.92354C34.1966 10.0974 34.4039 10.195 34.6201 10.195C34.8362 10.1949 35.0435 10.0972 35.1964 9.92331C35.3492 9.74939 35.435 9.51354 35.435 9.26763C35.4349 9.02172 35.349 8.7859 35.1962 8.61204L33.8273 7.05531L35.1962 5.49811C35.349 5.32426 35.4349 5.08844 35.435 4.84253C35.435 4.59662 35.3492 4.36076 35.1964 4.18685C35.0435 4.01293 34.8362 3.9152 34.6201 3.91516C34.4039 3.91512 34.1966 4.01276 34.0437 4.18662L32.6749 5.74381L31.3061 4.18662C31.1532 4.01276 30.9459 3.91512 30.7297 3.91516C30.5135 3.9152 30.3062 4.01293 30.1534 4.18685C30.0006 4.36076 29.9148 4.59662 29.9148 4.84253C29.9148 5.08844 30.0007 5.32426 30.1536 5.49811L31.5224 7.05531L30.1536 8.61204C30.0779 8.69814 30.0178 8.80037 29.9769 8.91289C29.9359 9.0254 29.9148 9.146 29.9148 9.26779C29.9148 9.38958 29.9359 9.51018 29.9769 9.62269C30.0178 9.73521 30.0779 9.83744 30.1536 9.92354Z" fill="white"/>
<path d="M19.4838 5.54071C19.6366 5.71453 19.8439 5.81218 20.06 5.81218C20.2761 5.81218 20.4834 5.71453 20.6362 5.54071L24.0002 1.71332C24.1531 1.53947 24.239 1.30365 24.239 1.05774C24.2391 0.811828 24.1532 0.575973 24.0004 0.402059C23.8476 0.228144 23.6403 0.130415 23.4241 0.130371C23.208 0.130328 23.0006 0.227973 22.8478 0.401827L20.0608 3.57231L18.324 1.5965C18.2483 1.51032 18.1585 1.44195 18.0596 1.39527C17.9607 1.3486 17.8547 1.32455 17.7476 1.32448C17.6405 1.32442 17.5345 1.34834 17.4355 1.3949C17.3366 1.44145 17.2467 1.50972 17.1709 1.5958C17.0952 1.68188 17.0351 1.7841 16.9941 1.89661C16.953 2.00911 16.9319 2.12971 16.9318 2.25152C16.9318 2.37332 16.9528 2.49395 16.9937 2.60651C17.0346 2.71907 17.0947 2.82135 17.1703 2.90753L19.4838 5.54071Z" fill="white"/>
</svg>
