<svg width="64" height="64" viewBox="0 0 64 64" fill="none" xmlns="http://www.w3.org/2000/svg">
<path d="M39.3888 18.5105C39.3886 17.0492 38.9551 15.6208 38.1431 14.4059C37.3312 13.191 36.1772 12.2442 34.8271 11.6851C33.477 11.1261 31.9914 10.9799 30.5583 11.2651C29.1251 11.5503 27.8087 12.254 26.7755 13.2874C25.7423 14.3207 25.0387 15.6372 24.7537 17.0704C24.4687 18.5036 24.6151 19.9892 25.1743 21.3392C25.7336 22.6892 26.6806 23.8431 27.8956 24.6549C29.1106 25.4667 30.5391 25.9 32.0003 25.9C33.9593 25.8976 35.8374 25.1183 37.2225 23.733C38.6076 22.3476 39.3867 20.4695 39.3888 18.5105ZM26.3618 18.5105C26.362 17.3953 26.6929 16.3053 27.3126 15.3782C27.9322 14.4511 28.8129 13.7285 29.8432 13.3019C30.8736 12.8753 32.0072 12.7638 33.1009 12.9815C34.1946 13.1991 35.1992 13.7362 35.9877 14.5248C36.7761 15.3134 37.3131 16.3181 37.5305 17.4118C37.748 18.5056 37.6363 19.6392 37.2095 20.6695C36.7827 21.6997 36.06 22.5803 35.1328 23.1998C34.2056 23.8193 33.1155 24.15 32.0003 24.15C30.5052 24.1483 29.0719 23.5535 28.0148 22.4963C26.9578 21.439 26.3633 20.0056 26.3618 18.5105Z" fill="#601DEE"/>
<path d="M61.6643 60.5345L54.5313 41.8345C54.468 41.6689 54.356 41.5265 54.21 41.4259C54.0641 41.3254 53.891 41.2716 53.7138 41.2715H40.2138C40.2963 41.137 40.3783 41.0065 40.4608 40.8715C45.6553 32.2715 48.2693 24.7485 48.2318 18.5145C48.2325 14.2095 46.5231 10.0805 43.4795 7.03593C40.4359 3.99132 36.3075 2.28047 32.0025 2.27974C27.6975 2.27901 23.5686 3.98846 20.524 7.03204C17.4794 10.0756 15.7685 14.204 15.7678 18.509C15.7303 24.7485 18.3443 32.2725 23.5388 40.8715C23.6213 41.008 23.7033 41.1385 23.7858 41.2715H10.2858C10.1086 41.2716 9.93551 41.3254 9.78954 41.4259C9.64357 41.5265 9.53155 41.6689 9.46829 41.8345L2.33629 60.5345C2.28547 60.667 2.26768 60.8098 2.28444 60.9507C2.30121 61.0917 2.35203 61.2264 2.43251 61.3432C2.513 61.4601 2.62073 61.5556 2.7464 61.6215C2.87207 61.6874 3.01189 61.7217 3.15379 61.7215H60.8468C60.9887 61.7217 61.1285 61.6874 61.2542 61.6215C61.3798 61.5556 61.4876 61.4601 61.5681 61.3432C61.6485 61.2264 61.6994 61.0917 61.7161 60.9507C61.7329 60.8098 61.7151 60.667 61.6643 60.5345ZM17.5183 18.5105C17.5186 16.6087 17.8935 14.7256 18.6216 12.9687C19.3497 11.2117 20.4167 9.61545 21.7617 8.2709C23.1067 6.92635 24.7034 5.85989 26.4606 5.13241C28.2177 4.40492 30.101 4.03066 32.0028 4.03099C33.9046 4.03132 35.7877 4.40623 37.5446 5.13432C39.3015 5.86241 40.8978 6.92943 42.2424 8.27444C43.5869 9.61945 44.6534 11.2161 45.3809 12.9733C46.1083 14.7304 46.4826 16.6137 46.4823 18.5155C46.5573 30.9445 34.9373 46.274 32.0003 49.95C29.0633 46.2755 17.4428 30.95 17.5183 18.5105ZM31.3338 51.9C31.4159 51.9966 31.5181 52.0741 31.6332 52.1273C31.7482 52.1805 31.8735 52.2081 32.0003 52.2081C32.1271 52.2081 32.2523 52.1805 32.3674 52.1273C32.4825 52.0741 32.5846 51.9966 32.6668 51.9C34.99 49.0699 37.1437 46.1049 39.1168 43.0205H53.1103L54.2303 45.958L26.8848 55.6835L17.1378 43.019H24.8828C26.8561 46.1039 29.0102 49.0695 31.3338 51.9ZM26.8543 57.55H26.8593L43.1728 51.75L49.5003 59.9715H20.0503L26.8543 57.55ZM10.8893 43.019H14.9293L25.1503 56.3L14.8288 59.971H4.42379L10.8893 43.019ZM51.7108 59.9715L44.9063 51.1305L54.8563 47.592L59.5778 59.9715H51.7108Z" fill="#601DEE"/>
</svg>
