<svg width="42" height="40" viewBox="0 0 42 40" fill="none" xmlns="http://www.w3.org/2000/svg">
<path d="M24.5067 12.7872C24.5067 12.4475 24.2313 12.172 23.8914 12.172H6.75774C6.41788 12.172 6.1425 12.4475 6.1425 12.7872C6.1425 13.127 6.41788 13.4025 6.75774 13.4025H23.8914C24.2313 13.4025 24.5067 13.127 24.5067 12.7872Z" fill="white"/>
<path d="M20.992 17.8259H6.75774C6.41788 17.8259 6.1425 18.1014 6.1425 18.4412C6.1425 18.7809 6.41788 19.0564 6.75774 19.0564H20.9919C21.3317 19.0564 21.6071 18.7809 21.6071 18.4412C21.6071 18.1014 21.3317 17.8259 20.992 17.8259Z" fill="white"/>
<path d="M20.992 23.4797H6.75774C6.41788 23.4797 6.1425 23.7552 6.1425 24.095C6.1425 24.4347 6.41788 24.7102 6.75774 24.7102H20.9919C21.3317 24.7102 21.6071 24.4347 21.6071 24.095C21.6071 23.7552 21.3317 23.4797 20.992 23.4797Z" fill="white"/>
<path d="M41.4634 16.626C39.3943 14.9573 38.2076 12.4756 38.2076 9.81732V9.08798C38.2076 7.05065 37.0658 5.27509 35.3887 4.36708V3.52175C35.3887 2.11803 34.2467 0.976074 32.843 0.976074C31.4393 0.976074 30.2973 2.11811 30.2973 3.52175V4.36708C28.6202 5.27509 27.4784 7.05065 27.4784 9.08807V9.81741C27.4784 12.4758 26.2916 14.9574 24.2228 16.6259C23.6637 17.0764 23.5178 17.8626 23.8966 18.482C24.1576 18.9088 24.6121 19.1636 25.1122 19.1636H29.0452C29.5738 20.7862 31.0967 21.9176 32.843 21.9176C34.5894 21.9176 36.1122 20.7862 36.6408 19.1636H40.5737C41.074 19.1636 41.5283 18.9089 41.7893 18.4821C42.1688 17.8614 42.021 17.0752 41.4634 16.626ZM31.5277 3.52175C31.5277 2.79651 32.1178 2.20646 32.843 2.20646C33.5683 2.20646 34.1582 2.79651 34.1582 3.52175V3.88712C33.3042 3.67105 32.399 3.6667 31.5277 3.88712V3.52175ZM32.843 20.687C31.7769 20.687 30.8314 20.0777 30.3723 19.1635H35.3137C34.8547 20.0777 33.9093 20.687 32.843 20.687ZM40.5737 17.933C38.8224 17.933 27.8651 17.933 25.1123 17.933C24.938 17.933 24.8383 17.7103 24.995 17.5838C27.3552 15.6804 28.7088 12.8496 28.7088 9.81732V9.08798C28.7088 6.80842 30.5634 4.95385 32.843 4.95385C35.1226 4.95385 36.9772 6.80842 36.9772 9.08798V9.81732C36.9772 12.8496 38.3308 15.6804 40.6911 17.584C40.8477 17.7101 40.7481 17.933 40.5737 17.933Z" fill="white"/>
<path d="M36.5528 21.0745C36.2129 21.0745 35.9376 21.35 35.9376 21.6897V26.9548C35.9376 28.9908 34.2812 30.6473 32.2452 30.6473H13.5871C13.0695 30.6473 12.5776 30.8436 12.2022 31.1999L5.54384 37.5206L6.52444 32.0756C6.65864 31.3309 6.0859 30.6474 5.33047 30.6474H4.92286C2.88684 30.6474 1.23047 28.9909 1.23047 26.9549V10.1397C1.23047 8.10364 2.88684 6.44727 4.92286 6.44727H26.3159C26.6557 6.44727 26.9311 6.1718 26.9311 5.83203C26.9311 5.49226 26.6557 5.2168 26.3159 5.2168H4.92286C2.20845 5.2168 0 7.42516 0 10.1397V26.9548C0 29.6693 2.20845 31.8778 4.92286 31.8778H5.3098L4.25217 37.7506C4.16907 38.2119 4.39048 38.6714 4.80285 38.8938C5.21341 39.1152 5.71914 39.0507 6.06072 38.7264L13.0494 32.0923C13.1951 31.9539 13.3861 31.8777 13.5872 31.8777H32.2453C34.9598 31.8777 37.1681 29.6692 37.1681 26.9548V21.6897C37.168 21.35 36.8926 21.0745 36.5528 21.0745Z" fill="white"/>
</svg>
