<svg width="43" height="43" viewBox="0 0 43 43" fill="none" xmlns="http://www.w3.org/2000/svg">
<path d="M1.34371 13.4374H41.6562C42.3979 13.4374 42.9999 12.8354 42.9999 12.0937C42.9999 11.3519 42.3978 10.75 41.6562 10.75H1.34371C0.601935 10.75 0 11.352 0 12.0937C0 12.8354 0.602047 13.4374 1.34371 13.4374Z" fill="#124BD8"/>
<path d="M41.6562 20.1562H1.34371C0.601935 20.1562 0 20.7583 0 21.5C0 22.2416 0.602047 22.8437 1.34371 22.8437H41.6562C42.3979 22.8437 42.9999 22.2416 42.9999 21.5C42.9999 20.7583 42.3979 20.1562 41.6562 20.1562Z" fill="#124BD8"/>
<path d="M41.6562 29.5625H14.7812C14.0394 29.5625 13.4375 30.1645 13.4375 30.9062C13.4375 31.648 14.0395 32.2499 14.7812 32.2499H41.6562C42.398 32.2499 42.9999 31.6479 42.9999 30.9062C43 30.1644 42.398 29.5625 41.6562 29.5625Z" fill="#124BD8"/>
</svg>
