<svg width="64" height="64" viewBox="0 0 64 64" fill="none" xmlns="http://www.w3.org/2000/svg">
<g clip-path="url(#clip0_42_211)">
<path d="M32.0022 0.000706926C24.7206 -0.0290776 17.6529 2.45818 11.9948 7.04207C11.6535 7.31648 11.3234 7.59138 11.0016 7.87116C9.8786 8.82817 8.8337 9.87356 7.8762 10.9966C7.67845 11.2266 7.48168 11.457 7.28686 11.6953C-3.1729 24.4099 -2.27204 42.9876 9.36934 54.6305C21.0102 66.2733 39.588 67.1766 52.304 56.7183C52.5457 56.5211 52.7762 56.3238 53.0033 56.129C54.1248 55.1734 55.1687 54.13 56.1248 53.0089C56.4153 52.674 56.7053 52.338 56.9607 52.007C61.5441 46.3494 64.0313 39.2812 64.0016 32.0001C63.9815 14.3354 49.6669 0.0202378 32.0022 0.000706926ZM55.2869 50.6848C55.0428 51.0002 54.7781 51.3049 54.5076 51.6174C53.6224 52.6559 52.6556 53.6227 51.6166 54.5079C51.3993 54.6944 51.1815 54.881 50.9501 55.0704C39.0821 64.8319 21.7426 63.9887 10.8776 53.1222C0.0125845 42.2557 -0.828219 24.9162 8.93477 13.0498C9.12178 12.8217 9.3083 12.604 9.49775 12.3833C10.384 11.3428 11.3522 10.375 12.3927 9.48929C12.7023 9.22025 13.0133 8.96195 13.3326 8.70366C18.6128 4.42689 25.2079 2.10613 32.0022 2.13397C48.4892 2.15203 61.8498 15.5131 61.8683 32.0001C61.8952 38.8007 59.57 45.4021 55.2869 50.6848Z" fill="#601DEE"/>
<path d="M13.4165 16.174C13.2027 15.9548 12.9029 15.841 12.5972 15.8635C12.2925 15.882 12.0103 16.0309 11.8223 16.2712C3.86887 26.4541 4.75752 40.9694 13.8936 50.1059C23.0301 59.243 37.5454 60.1321 47.7283 52.1791C47.9696 51.9907 48.118 51.7085 48.137 51.4033C48.1556 51.0981 48.0428 50.7998 47.8265 50.5835L13.4165 16.174ZM32.0006 55.4657C23.2513 55.473 15.2256 50.6074 11.1846 42.8468C7.1437 35.0862 7.76039 25.7212 12.7832 18.5572L45.4427 51.2163C41.5009 53.9721 36.8101 55.455 32.0006 55.4657Z" fill="#601DEE"/>
<path d="M39.6047 7.55307C31.7269 5.1039 23.1514 6.60582 16.5748 11.5867C16.3283 11.7722 16.1749 12.0559 16.1535 12.3635C16.132 12.6716 16.2453 12.9734 16.463 13.1916L50.809 47.5269C51.0092 47.7271 51.2802 47.8399 51.5634 47.8394C51.5873 47.8394 51.6117 47.8384 51.6362 47.8369C51.9433 47.8159 52.2265 47.6631 52.4125 47.4175C57.4461 40.7726 58.9251 32.0916 56.3748 24.1548C53.8251 16.2184 47.5669 10.0227 39.6047 7.55307ZM51.4291 45.1309L18.8604 12.5725C22.7334 9.93242 27.3139 8.52473 32.0008 8.53352C40.6833 8.52522 48.6592 13.3157 52.7299 20.9844C56.8011 28.6532 56.3006 37.9436 51.4291 45.1305V45.1309Z" fill="#601DEE"/>
</g>
<defs>
<clipPath id="clip0_42_211">
<rect width="64" height="64" fill="white"/>
</clipPath>
</defs>
</svg>
