<svg width="324" height="99" viewBox="0 0 324 99" fill="none" xmlns="http://www.w3.org/2000/svg">
<g filter="url(#filter0_d_13_180)">
<rect x="15" y="11.7923" width="293.596" height="67.8975" rx="6" fill="white"/>
</g>
<path d="M101.699 53.22C100.539 53.22 99.5387 53.0333 98.6987 52.66C97.872 52.2733 97.112 51.6933 96.4187 50.92L98.4587 48.9C98.912 49.42 99.412 49.8267 99.9587 50.12C100.519 50.4 101.165 50.54 101.899 50.54C102.565 50.54 103.079 50.42 103.439 50.18C103.812 49.94 103.999 49.6067 103.999 49.18C103.999 48.7933 103.879 48.48 103.639 48.24C103.399 48 103.079 47.7933 102.679 47.62C102.292 47.4467 101.859 47.28 101.379 47.12C100.912 46.96 100.445 46.78 99.9787 46.58C99.512 46.3667 99.0787 46.1067 98.6787 45.8C98.292 45.48 97.9787 45.0867 97.7387 44.62C97.4987 44.14 97.3787 43.54 97.3787 42.82C97.3787 41.9533 97.5853 41.2067 97.9987 40.58C98.4253 39.9533 99.012 39.48 99.7587 39.16C100.505 38.8267 101.365 38.66 102.339 38.66C103.325 38.66 104.225 38.8333 105.039 39.18C105.865 39.5267 106.545 40 107.079 40.6L105.039 42.62C104.612 42.18 104.179 41.8533 103.739 41.64C103.312 41.4267 102.825 41.32 102.279 41.32C101.732 41.32 101.299 41.4267 100.979 41.64C100.659 41.84 100.499 42.1333 100.499 42.52C100.499 42.88 100.619 43.1733 100.859 43.4C101.099 43.6133 101.412 43.8 101.799 43.96C102.199 44.12 102.632 44.28 103.099 44.44C103.579 44.6 104.052 44.7867 104.519 45C104.985 45.2133 105.412 45.4867 105.799 45.82C106.199 46.14 106.519 46.5533 106.759 47.06C106.999 47.5533 107.119 48.1667 107.119 48.9C107.119 50.2467 106.639 51.3067 105.679 52.08C104.719 52.84 103.392 53.22 101.699 53.22ZM113.48 53.22C112.48 53.22 111.574 53 110.76 52.56C109.947 52.12 109.307 51.5133 108.84 50.74C108.374 49.9667 108.14 49.1 108.14 48.14C108.14 47.1667 108.374 46.3 108.84 45.54C109.32 44.7667 109.967 44.16 110.78 43.72C111.594 43.28 112.507 43.06 113.52 43.06C114.28 43.06 114.974 43.1933 115.6 43.46C116.24 43.7133 116.807 44.1 117.3 44.62L115.34 46.58C115.114 46.3267 114.847 46.14 114.54 46.02C114.247 45.9 113.907 45.84 113.52 45.84C113.08 45.84 112.687 45.94 112.34 46.14C112.007 46.3267 111.74 46.5933 111.54 46.94C111.354 47.2733 111.26 47.6667 111.26 48.12C111.26 48.5733 111.354 48.9733 111.54 49.32C111.74 49.6667 112.014 49.94 112.36 50.14C112.707 50.34 113.094 50.44 113.52 50.44C113.92 50.44 114.274 50.3733 114.58 50.24C114.9 50.0933 115.174 49.8933 115.4 49.64L117.34 51.6C116.834 52.1333 116.26 52.54 115.62 52.82C114.98 53.0867 114.267 53.22 113.48 53.22ZM125.122 53V47.46C125.122 46.9533 124.962 46.5467 124.642 46.24C124.335 45.92 123.942 45.76 123.462 45.76C123.129 45.76 122.835 45.8333 122.582 45.98C122.329 46.1133 122.129 46.3133 121.982 46.58C121.835 46.8333 121.762 47.1267 121.762 47.46L120.582 46.88C120.582 46.12 120.742 45.4533 121.062 44.88C121.382 44.3067 121.829 43.8667 122.402 43.56C122.975 43.24 123.635 43.08 124.382 43.08C125.142 43.08 125.809 43.24 126.382 43.56C126.955 43.8667 127.395 44.3 127.702 44.86C128.022 45.4067 128.182 46.0467 128.182 46.78V53H125.122ZM118.702 53V38.48H121.762V53H118.702ZM132.527 53L129.167 43.28H132.167L134.247 50.34L133.367 50.36L135.667 43.28H138.147L140.467 50.36L139.567 50.34L141.667 43.28H144.667L141.307 53H138.807L136.547 46.28H137.307L135.007 53H132.527ZM150.455 53.22C149.402 53.22 148.462 53.0067 147.635 52.58C146.822 52.14 146.182 51.5333 145.715 50.76C145.249 49.9867 145.015 49.1133 145.015 48.14C145.015 47.1667 145.242 46.3 145.695 45.54C146.162 44.7667 146.789 44.16 147.575 43.72C148.362 43.28 149.249 43.06 150.235 43.06C151.195 43.06 152.042 43.2667 152.775 43.68C153.509 44.0933 154.082 44.6667 154.495 45.4C154.922 46.1333 155.135 46.9733 155.135 47.92C155.135 48.0933 155.122 48.28 155.095 48.48C155.082 48.6667 155.049 48.8867 154.995 49.14L146.615 49.16V47.06L153.695 47.04L152.375 47.92C152.362 47.36 152.275 46.9 152.115 46.54C151.955 46.1667 151.715 45.8867 151.395 45.7C151.089 45.5 150.709 45.4 150.255 45.4C149.775 45.4 149.355 45.5133 148.995 45.74C148.649 45.9533 148.375 46.26 148.175 46.66C147.989 47.06 147.895 47.5467 147.895 48.12C147.895 48.6933 147.995 49.1867 148.195 49.6C148.409 50 148.702 50.3133 149.075 50.54C149.462 50.7533 149.915 50.86 150.435 50.86C150.915 50.86 151.349 50.78 151.735 50.62C152.122 50.4467 152.462 50.1933 152.755 49.86L154.435 51.54C153.955 52.1 153.375 52.52 152.695 52.8C152.015 53.08 151.269 53.22 150.455 53.22ZM156.612 53V43.28H159.672V53H156.612ZM158.152 41.94C157.672 41.94 157.272 41.78 156.952 41.46C156.646 41.1267 156.492 40.7267 156.492 40.26C156.492 39.78 156.646 39.38 156.952 39.06C157.272 38.74 157.672 38.58 158.152 38.58C158.632 38.58 159.026 38.74 159.332 39.06C159.639 39.38 159.792 39.78 159.792 40.26C159.792 40.7267 159.639 41.1267 159.332 41.46C159.026 41.78 158.632 41.94 158.152 41.94ZM161.207 51.2L166.087 45.06H169.807L164.927 51.2H161.207ZM161.207 53V51.2L163.387 50.44H169.687V53H161.207ZM161.567 45.84V43.28H169.807V45.06L167.647 45.84H161.567Z" fill="black"/>
<g clip-path="url(#clip0_13_180)">
<path d="M57.8571 67.8815C70.0998 67.8815 80.0245 57.9689 80.0245 45.741C80.0245 33.5132 70.0998 23.6005 57.8571 23.6005C45.6143 23.6005 35.6896 33.5132 35.6896 45.741C35.6896 57.9689 45.6143 67.8815 57.8571 67.8815Z" fill="#D80027"/>
<path d="M69.4227 41.8905H61.7123V34.1895H54.0019V41.8905H46.2915V49.5915H54.0019V57.2925H61.7123V49.5915H69.4227V41.8905Z" fill="#F0F0F0"/>
</g>
<defs>
<filter id="filter0_d_13_180" x="0" y="0.792282" width="323.596" height="97.8975" filterUnits="userSpaceOnUse" color-interpolation-filters="sRGB">
<feFlood flood-opacity="0" result="BackgroundImageFix"/>
<feColorMatrix in="SourceAlpha" type="matrix" values="0 0 0 0 0 0 0 0 0 0 0 0 0 0 0 0 0 0 127 0" result="hardAlpha"/>
<feOffset dy="4"/>
<feGaussianBlur stdDeviation="7.5"/>
<feComposite in2="hardAlpha" operator="out"/>
<feColorMatrix type="matrix" values="0 0 0 0 0 0 0 0 0 0 0 0 0 0 0 0 0 0 0.15 0"/>
<feBlend mode="normal" in2="BackgroundImageFix" result="effect1_dropShadow_13_180"/>
<feBlend mode="normal" in="SourceGraphic" in2="effect1_dropShadow_13_180" result="shape"/>
</filter>
<clipPath id="clip0_13_180">
<rect width="46.3053" height="44.281" fill="white" transform="translate(34.7044 23.6005)"/>
</clipPath>
</defs>
</svg>
