<svg width="64" height="64" viewBox="0 0 64 64" fill="none" xmlns="http://www.w3.org/2000/svg">
<path d="M58.7143 63.7923H5.28679C5.05406 63.7923 4.8338 63.7008 4.66757 63.5346C4.50549 63.3725 4.41406 63.1481 4.41406 62.9154L4.42237 27.092C4.42237 26.6099 4.81302 26.2192 5.2951 26.2192C5.77718 26.2192 6.16783 26.6099 6.16783 27.092L6.15952 62.0426H57.8416L57.8333 27.092C57.8333 26.6099 58.2239 26.2192 58.706 26.2192C59.1881 26.2192 59.5787 26.6099 59.5787 27.092L59.587 62.9154C59.587 63.1481 59.4956 63.3684 59.3335 63.5346C59.1673 63.7008 58.947 63.7923 58.7143 63.7923Z" fill="#601DEE"/>
<path d="M32.0066 52.567H31.9858C31.7655 52.567 31.5536 52.4839 31.3957 52.3343L4.70268 27.7358C4.34943 27.4075 4.32449 26.8589 4.65281 26.5015C4.98112 26.1483 5.52969 26.1234 5.88709 26.4517L31.9983 50.514L58.1094 26.4517C58.4627 26.1234 59.0154 26.1483 59.3437 26.5015C59.672 26.8548 59.6471 27.4075 59.2938 27.7358L32.6009 52.3343C32.4388 52.4839 32.2268 52.567 32.0066 52.567Z" fill="#601DEE"/>
<path d="M58.7157 63.7922C58.537 63.7922 58.3541 63.7382 58.2004 63.6218L36.5733 47.7174C36.1868 47.4307 36.1037 46.8862 36.3863 46.4956C36.6731 46.1091 37.2175 46.026 37.6081 46.3086L59.2352 62.213C59.6217 62.4998 59.7048 63.0442 59.4222 63.4348C59.2476 63.6675 58.9858 63.7922 58.7157 63.7922Z" fill="#601DEE"/>
<path d="M5.28696 63.7922C5.01683 63.7922 4.75501 63.6675 4.58462 63.4348C4.29787 63.0483 4.38098 62.4998 4.77163 62.213L26.3986 46.3086C26.7851 46.0218 27.3337 46.105 27.6205 46.4956C27.9072 46.8863 27.8241 47.4307 27.4334 47.7174L5.80644 63.6218C5.64852 63.7382 5.46566 63.7922 5.28696 63.7922Z" fill="#601DEE"/>
<path d="M49.1599 36.7668C48.6778 36.7668 48.2872 36.3761 48.2872 35.894V9.15119H15.722V35.894C15.722 36.3761 15.3314 36.7668 14.8493 36.7668C14.3672 36.7668 13.9766 36.3761 13.9766 35.894V8.27846C13.9766 7.79638 14.3672 7.40573 14.8493 7.40573H49.1599C49.642 7.40573 50.0326 7.79638 50.0326 8.27846V35.894C50.0326 36.3761 49.642 36.7668 49.1599 36.7668Z" fill="#601DEE"/>
<path d="M24.7321 9.15118C24.5077 9.15118 24.2833 9.06391 24.1129 8.89352C23.7721 8.55274 23.7763 8.00001 24.117 7.65923L31.3815 0.46131C31.7222 0.120531 32.275 0.124687 32.6158 0.465466C32.9565 0.806245 32.9524 1.35897 32.6116 1.69975L25.3472 8.89767C25.1768 9.06391 24.9524 9.15118 24.7321 9.15118Z" fill="#601DEE"/>
<path d="M39.2497 9.15118C39.0294 9.15118 38.805 9.06806 38.6346 8.89767L31.3827 1.69975C31.0419 1.35897 31.0377 0.806245 31.3785 0.465466C31.7193 0.124687 32.272 0.120531 32.6128 0.46131L39.8648 7.65923C40.2055 8.00001 40.2097 8.55274 39.8689 8.89352C39.7027 9.06391 39.4783 9.15118 39.2497 9.15118Z" fill="#601DEE"/>
<path d="M5.29261 27.9688C5.06404 27.9688 4.83962 27.8816 4.66923 27.707C4.33261 27.3621 4.34092 26.8094 4.68586 26.4727L14.236 17.172C14.5809 16.8353 15.1336 16.8437 15.4703 17.1886C15.8069 17.5335 15.7986 18.0862 15.4536 18.4229L5.90352 27.7195C5.73313 27.8857 5.51287 27.9688 5.29261 27.9688Z" fill="#601DEE"/>
<path d="M58.7063 27.9688C58.486 27.9688 58.2658 27.8857 58.0954 27.7195L48.5452 18.4187C48.2003 18.0821 48.192 17.5294 48.5286 17.1844C48.8652 16.8395 49.418 16.8312 49.7629 17.1678L59.3131 26.4686C59.658 26.8052 59.6663 27.3579 59.3297 27.7029C59.1593 27.8816 58.9307 27.9688 58.7063 27.9688Z" fill="#601DEE"/>
<path d="M32.0005 37.1117C29.1164 37.1117 26.4026 35.9896 24.3621 33.9449C22.3174 31.9044 21.1953 29.1907 21.1953 26.3065C21.1953 23.4223 22.3174 20.7086 24.3621 18.6681C26.4026 16.6234 29.1164 15.5013 32.0005 15.5013C34.8847 15.5013 37.5984 16.6234 39.6389 18.6681C41.6836 20.7086 42.8057 23.4223 42.8057 26.3065C42.8057 29.1907 41.6836 31.9044 39.6389 33.9449C37.5943 35.9855 34.8847 37.1117 32.0005 37.1117ZM32.0005 17.2468C27.0052 17.2468 22.9408 21.3112 22.9408 26.3065C22.9408 31.3018 27.0052 35.3662 32.0005 35.3662C36.9958 35.3662 41.0602 31.3018 41.0602 26.3065C41.0602 21.3112 36.9958 17.2468 32.0005 17.2468Z" fill="#601DEE"/>
<path d="M29.9712 30.6951C29.7468 30.6951 29.5266 30.612 29.3562 30.4374L26.3806 27.4701C26.0398 27.1294 26.0398 26.5766 26.3806 26.2359C26.7214 25.8951 27.2741 25.8951 27.6149 26.2359L29.9712 28.5922L36.3878 22.1756C36.7286 21.8348 37.2814 21.8348 37.6221 22.1756C37.9629 22.5164 37.9629 23.0691 37.6221 23.4099L30.5904 30.4416C30.4201 30.612 30.1956 30.6951 29.9712 30.6951Z" fill="#601DEE"/>
</svg>
