<svg width="64" height="64" viewBox="0 0 64 64" fill="none" xmlns="http://www.w3.org/2000/svg">
<path d="M60.0446 61.8428H58.2469V5.39325C58.2469 4.79737 57.7639 4.31462 57.1682 4.31462H37.0334C36.4376 4.31462 35.9547 4.79737 35.9547 5.39325V10.0674H33.7975V5.39325C33.7975 4.79737 33.3145 4.31462 32.7189 4.31462H28.0446V1.07862C28.0446 0.48275 27.5616 0 26.966 0C26.3704 0 25.8874 0.48275 25.8874 1.07862V4.31462H21.2132C20.6175 4.31462 20.1346 4.79737 20.1346 5.39325V10.0674H16.8986C16.3029 10.0674 15.82 10.5501 15.82 11.146V20.1348H6.83123C6.23548 20.1348 5.7526 20.6175 5.7526 21.2134V61.8426H3.9546C3.35885 61.8426 2.87598 62.3254 2.87598 62.9212C2.87598 63.5171 3.35898 64 3.9546 64H60.0446C60.6404 64 61.1232 63.5173 61.1232 62.9214C61.1232 62.3255 60.6402 61.8428 60.0446 61.8428ZM22.2917 6.47188H31.64V10.0674H22.2917V6.47188ZM18.6962 61.8428H17.9771V60.045C17.9771 59.4491 17.4941 58.9664 16.8985 58.9664C16.3029 58.9664 15.8199 59.4491 15.8199 60.045V61.8428H15.1007V58.2472H18.6962V61.8428ZM25.8872 34.1572V36.0129V61.8428H20.8535V57.1686C20.8535 56.5728 20.3705 56.09 19.7749 56.09H14.0221C13.4264 56.09 12.9435 56.5728 12.9435 57.1686V61.8428H7.90973V22.2921H25.8872V34.1572ZM26.9659 20.1349H17.9771V12.2247H35.9546V33.0786H28.0446V29.4831H31.2806C31.8764 29.4831 32.3592 29.0004 32.3592 28.4045C32.3592 27.8086 31.8762 27.3259 31.2806 27.3259H28.0446V23.7304H31.2806C31.8764 23.7304 32.3592 23.2476 32.3592 22.6518C32.3592 22.0559 31.8762 21.5731 31.2806 21.5731H28.0446V21.2136C28.0446 20.6176 27.5616 20.1349 26.9659 20.1349ZM46.0221 61.8428H28.0446V36.0129V35.236H46.0221V61.8428ZM56.0895 61.8428H48.1794V34.1572V32.719C48.1794 32.1231 47.6964 31.6404 47.1007 31.6404C46.5051 31.6404 46.0221 32.1231 46.0221 32.719V33.0785H43.8649V32.719C43.8649 32.1231 43.3819 31.6404 42.7862 31.6404C42.1906 31.6404 41.7076 32.1231 41.7076 32.719V33.0785H38.1121V11.1461V6.47188H56.0896V61.8428H56.0895Z" fill="#601DEE"/>
<path d="M32.7188 59.6856C33.3145 59.6856 33.7974 59.2026 33.7974 58.607V38.4723C33.7974 37.8764 33.3144 37.3936 32.7188 37.3936C32.1231 37.3936 31.6401 37.8764 31.6401 38.4723V58.6071C31.6401 59.2028 32.123 59.6856 32.7188 59.6856Z" fill="#601DEE"/>
<path d="M37.0337 59.6856C37.6295 59.6856 38.1123 59.2026 38.1123 58.607V38.4723C38.1123 37.8764 37.6293 37.3936 37.0337 37.3936C36.4381 37.3936 35.9551 37.8764 35.9551 38.4723V58.6071C35.955 59.2028 36.438 59.6856 37.0337 59.6856Z" fill="#601DEE"/>
<path d="M41.3477 59.6856C41.9434 59.6856 42.4263 59.2026 42.4263 58.607V38.4723C42.4263 37.8764 41.9433 37.3936 41.3477 37.3936C40.752 37.3936 40.269 37.8764 40.269 38.4723V58.6071C40.269 59.2028 40.752 59.6856 41.3477 59.6856Z" fill="#601DEE"/>
<path d="M42.7866 13.6629C43.3824 13.6629 43.8653 13.1801 43.8653 12.5843V11.1461C43.8653 10.5503 43.3823 10.0675 42.7866 10.0675C42.191 10.0675 41.708 10.5503 41.708 11.1461V12.5844C41.708 13.1801 42.1909 13.6629 42.7866 13.6629Z" fill="#601DEE"/>
<path d="M47.1006 13.6629C47.6963 13.6629 48.1792 13.1801 48.1792 12.5843V11.1461C48.1792 10.5503 47.6962 10.0675 47.1006 10.0675C46.505 10.0675 46.022 10.5503 46.022 11.1461V12.5844C46.022 13.1801 46.5048 13.6629 47.1006 13.6629Z" fill="#601DEE"/>
<path d="M51.4155 13.6629C52.0113 13.6629 52.4942 13.1801 52.4942 12.5843V11.1461C52.4942 10.5503 52.0112 10.0675 51.4155 10.0675C50.8199 10.0675 50.3369 10.5503 50.3369 11.1461V12.5844C50.3369 13.1801 50.8198 13.6629 51.4155 13.6629Z" fill="#601DEE"/>
<path d="M42.7866 20.8539C43.3824 20.8539 43.8653 20.3711 43.8653 19.7753V18.337C43.8653 17.7411 43.3823 17.2584 42.7866 17.2584C42.191 17.2584 41.708 17.7411 41.708 18.337V19.7753C41.708 20.3711 42.1909 20.8539 42.7866 20.8539Z" fill="#601DEE"/>
<path d="M47.1006 20.8539C47.6963 20.8539 48.1792 20.3711 48.1792 19.7753V18.337C48.1792 17.7411 47.6962 17.2584 47.1006 17.2584C46.505 17.2584 46.022 17.7411 46.022 18.337V19.7753C46.022 20.3711 46.5048 20.8539 47.1006 20.8539Z" fill="#601DEE"/>
<path d="M51.4155 20.8539C52.0113 20.8539 52.4942 20.3711 52.4942 19.7753V18.337C52.4942 17.7411 52.0112 17.2584 51.4155 17.2584C50.8199 17.2584 50.3369 17.7411 50.3369 18.337V19.7753C50.3369 20.3711 50.8198 20.8539 51.4155 20.8539Z" fill="#601DEE"/>
<path d="M42.7866 28.045C43.3824 28.045 43.8653 27.5623 43.8653 26.9664V25.5281C43.8653 24.9323 43.3823 24.4495 42.7866 24.4495C42.191 24.4495 41.708 24.9323 41.708 25.5281V26.9664C41.708 27.5621 42.1909 28.045 42.7866 28.045Z" fill="#601DEE"/>
<path d="M47.1006 28.045C47.6963 28.045 48.1792 27.5623 48.1792 26.9664V25.5281C48.1792 24.9323 47.6962 24.4495 47.1006 24.4495C46.505 24.4495 46.022 24.9323 46.022 25.5281V26.9664C46.022 27.5621 46.5048 28.045 47.1006 28.045Z" fill="#601DEE"/>
<path d="M51.4155 28.045C52.0113 28.045 52.4942 27.5623 52.4942 26.9664V25.5281C52.4942 24.9323 52.0112 24.4495 51.4155 24.4495C50.8199 24.4495 50.3369 24.9323 50.3369 25.5281V26.9664C50.3369 27.5621 50.8198 28.045 51.4155 28.045Z" fill="#601DEE"/>
<path d="M12.5835 30.9214C13.1793 30.9214 13.6621 30.4386 13.6621 29.8427V28.4045C13.6621 27.8086 13.1791 27.3259 12.5835 27.3259C11.9879 27.3259 11.5049 27.8086 11.5049 28.4045V29.8427C11.5049 30.4385 11.9879 30.9214 12.5835 30.9214Z" fill="#601DEE"/>
<path d="M16.8984 30.9214C17.4942 30.9214 17.9771 30.4386 17.9771 29.8427V28.4045C17.9771 27.8086 17.4941 27.3259 16.8984 27.3259C16.3028 27.3259 15.8198 27.8086 15.8198 28.4045V29.8427C15.8198 30.4385 16.3027 30.9214 16.8984 30.9214Z" fill="#601DEE"/>
<path d="M21.2134 30.9214C21.8091 30.9214 22.292 30.4386 22.292 29.8427V28.4045C22.292 27.8086 21.809 27.3259 21.2134 27.3259C20.6178 27.3259 20.1348 27.8086 20.1348 28.4045V29.8427C20.1348 30.4385 20.6176 30.9214 21.2134 30.9214Z" fill="#601DEE"/>
<path d="M12.5835 38.1124C13.1793 38.1124 13.6621 37.6296 13.6621 37.0337V35.5955C13.6621 34.9996 13.1791 34.5169 12.5835 34.5169C11.9879 34.5169 11.5049 34.9996 11.5049 35.5955V37.0337C11.5049 37.6295 11.9879 38.1124 12.5835 38.1124Z" fill="#601DEE"/>
<path d="M16.8984 38.1124C17.4942 38.1124 17.9771 37.6296 17.9771 37.0337V35.5955C17.9771 34.9996 17.4941 34.5169 16.8984 34.5169C16.3028 34.5169 15.8198 34.9996 15.8198 35.5955V37.0337C15.8198 37.6295 16.3027 38.1124 16.8984 38.1124Z" fill="#601DEE"/>
<path d="M21.2134 38.1124C21.8091 38.1124 22.292 37.6296 22.292 37.0337V35.5955C22.292 34.9996 21.809 34.5169 21.2134 34.5169C20.6178 34.5169 20.1348 34.9996 20.1348 35.5955V37.0337C20.1348 37.6295 20.6176 38.1124 21.2134 38.1124Z" fill="#601DEE"/>
<path d="M12.5835 45.3034C13.1793 45.3034 13.6621 44.8206 13.6621 44.2247V42.7865C13.6621 42.1906 13.1791 41.7079 12.5835 41.7079C11.9879 41.7079 11.5049 42.1906 11.5049 42.7865V44.2247C11.5049 44.8206 11.9879 45.3034 12.5835 45.3034Z" fill="#601DEE"/>
<path d="M16.8984 45.3034C17.4942 45.3034 17.9771 44.8206 17.9771 44.2247V42.7865C17.9771 42.1906 17.4941 41.7079 16.8984 41.7079C16.3028 41.7079 15.8198 42.1906 15.8198 42.7865V44.2247C15.8198 44.8206 16.3027 45.3034 16.8984 45.3034Z" fill="#601DEE"/>
<path d="M21.2134 45.3034C21.8091 45.3034 22.292 44.8206 22.292 44.2247V42.7865C22.292 42.1906 21.809 41.7079 21.2134 41.7079C20.6178 41.7079 20.1348 42.1906 20.1348 42.7865V44.2247C20.1348 44.8206 20.6176 45.3034 21.2134 45.3034Z" fill="#601DEE"/>
<path d="M12.5835 52.4944C13.1793 52.4944 13.6621 52.0116 13.6621 51.4157V49.9775C13.6621 49.3816 13.1791 48.8989 12.5835 48.8989C11.9879 48.8989 11.5049 49.3816 11.5049 49.9775V51.4157C11.5049 52.0116 11.9879 52.4944 12.5835 52.4944Z" fill="#601DEE"/>
<path d="M16.8984 52.4944C17.4942 52.4944 17.9771 52.0116 17.9771 51.4157V49.9775C17.9771 49.3816 17.4941 48.8989 16.8984 48.8989C16.3028 48.8989 15.8198 49.3816 15.8198 49.9775V51.4157C15.8198 52.0116 16.3027 52.4944 16.8984 52.4944Z" fill="#601DEE"/>
<path d="M21.2134 52.4944C21.8091 52.4944 22.292 52.0116 22.292 51.4157V49.9775C22.292 49.3816 21.809 48.8989 21.2134 48.8989C20.6178 48.8989 20.1348 49.3816 20.1348 49.9775V51.4157C20.1348 52.0116 20.6176 52.4944 21.2134 52.4944Z" fill="#601DEE"/>
<path d="M51.4155 35.236C52.0113 35.236 52.4942 34.7533 52.4942 34.1574V32.7191C52.4942 32.1233 52.0112 31.6405 51.4155 31.6405C50.8199 31.6405 50.3369 32.1233 50.3369 32.7191V34.1574C50.3369 34.7531 50.8198 35.236 51.4155 35.236Z" fill="#601DEE"/>
<path d="M51.4155 42.427C52.0113 42.427 52.4942 41.9442 52.4942 41.3484V39.9101C52.4942 39.3142 52.0112 38.8315 51.4155 38.8315C50.8199 38.8315 50.3369 39.3142 50.3369 39.9101V41.3484C50.3369 41.9441 50.8198 42.427 51.4155 42.427Z" fill="#601DEE"/>
<path d="M51.4155 49.618C52.0113 49.618 52.4942 49.1352 52.4942 48.5394V47.1011C52.4942 46.5052 52.0112 46.0225 51.4155 46.0225C50.8199 46.0225 50.3369 46.5052 50.3369 47.1011V48.5394C50.3369 49.1351 50.8198 49.618 51.4155 49.618Z" fill="#601DEE"/>
<path d="M51.4155 56.809C52.0113 56.809 52.4942 56.3262 52.4942 55.7304V54.2921C52.4942 53.6962 52.0112 53.2135 51.4155 53.2135C50.8199 53.2135 50.3369 53.6962 50.3369 54.2921V55.7304C50.3369 56.3261 50.8198 56.809 51.4155 56.809Z" fill="#601DEE"/>
<path d="M32.3593 16.8989C32.3593 16.303 31.8763 15.8203 31.2806 15.8203H22.6514C22.0556 15.8203 21.5728 16.303 21.5728 16.8989C21.5728 17.4948 22.0558 17.9775 22.6514 17.9775H31.2806C31.8764 17.9775 32.3593 17.4948 32.3593 16.8989Z" fill="#601DEE"/>
</svg>
