<svg width="1920" height="1003" viewBox="0 0 1920 1003" fill="none" xmlns="http://www.w3.org/2000/svg">
<path fill-rule="evenodd" clip-rule="evenodd" d="M0 51.0926H106.667C213.333 51.0926 426.667 51.0926 640 76.1745C704.229 83.726 768.459 93.6353 832.688 103.545C981.792 126.548 1130.9 149.552 1280 143.059C1493.33 134.699 1706.67 67.8139 1813.33 33.4425L1920 0V202.513V863.93H0V202.513V51.0926ZM1813.39 967.939H1920V864.03H1813.39L1280.35 864.03L640.703 864.03L107.663 864.03H1.05489L1.05488 1003L107.663 980.051C214.271 956.464 427.487 910.566 640.703 904.829C789.725 900.373 938.747 916.159 1087.77 931.945C1151.96 938.745 1216.16 945.545 1280.35 950.727C1493.57 967.939 1706.78 967.939 1813.39 967.939H1813.39Z" fill="#F6F8FF"/>
</svg>
